<?xml version="1.0" encoding="utf-8"?>
<!-- Generator: Adobe Illustrator 18.1.1, SVG Export Plug-In . SVG Version: 6.00 Build 0)  -->
<svg version="1.1" id="Layer_1" xmlns="http://www.w3.org/2000/svg" xmlns:xlink="http://www.w3.org/1999/xlink" x="0px" y="0px"
	 viewBox="0 0 600 300" enable-background="new 0 0 600 300" xml:space="preserve">
<path fill="#FFFFFF" stroke="#000000" stroke-miterlimit="10" d="M581.7,164.5c-16.4-33.6-78.8-47.9-103.1-55.3
	c-7.1-2.2-13.2-3.7-25.1-6.5c-104.3-25.1-139.7,9.4-179.8-3.1c-26.2-8.2-67.6-24.6-69.5-19.5c-1.9,5.1,23.2,14.5,21.6,24.6
	c-1.6,10.4-30.5,18.9-56.4,13.5c-22.9-4.8-38.1-19.6-40.2-17.1c-2.6,3.2,25.6,22.5,21.4,37.2c-3.9,13.7-34.5,17.8-53.8,17.6
	C54.7,155.4,21.4,134,19,138.4c-1.8,3.4,18.6,13.3,17.5,27.2c-0.9,10.9-10,17.3-12.1,21.7c-1.3,2.8,16.1-0.6,21.8,5.8
	c8.1,9.2-10,33.2-5.2,37.3c5.1,4.4,27.7-21.2,67.4-39.6c12.7-5.9,42.4-19.7,52.6-9.4c9.2,9.1-1.8,32.7,1.9,34.1
	c3.6,1.3,10.5-22.6,31.1-40.4c17.4-15,42.4-23.7,49.4-16.5c7.5,7.8-8.1,31.7-4.4,34c3.9,2.4,12.9-24.7,39.4-25.9
	c65.6-3.1,77.9-8.2,123.7-2.5c16.9,2.1-12.6,21.2-47.9,35.6c-1.8,0.7,106.4-0.5,114-8.2c10.9-10.9,88.4,8.6,105.8-8.1
	C583.9,174,582.4,165.9,581.7,164.5z"/>
</svg>
