<?xml version="1.0" encoding="utf-8"?>
<!-- Generator: Adobe Illustrator 18.1.1, SVG Export Plug-In . SVG Version: 6.00 Build 0)  -->
<svg version="1.1" id="Layer_1" xmlns="http://www.w3.org/2000/svg" xmlns:xlink="http://www.w3.org/1999/xlink" x="0px" y="0px"
	 viewBox="0 0 600 300" enable-background="new 0 0 600 300" xml:space="preserve">
<path fill="#FFFFFF" stroke="#000000" stroke-miterlimit="10" d="M568.4,95.2c-28.7-23.9-91.4-11.5-116.7-8.4
	c-7.4,0.9-13.6,2-25.6,4.3c-105.4,19.7-112.2,21-152.3,8.5c-26.2-8.2-44.2-28.9-48.2-25.1c-4,3.8,14.5,23.2,8.6,31.6
	c-6,8.6-35.8,3.6-56.6-12.7c-18.4-14.4-25.6-34.3-28.6-33c-3.8,1.7,13.1,31.5,2.9,42.9c-9.5,10.6-38.8,0.8-56.1-7.9
	c-37.7-19-58.2-52.8-62.3-49.9c-3.1,2.2,10.9,20.1,3.8,32.1C31.7,87,20.7,88.8,16.9,91.8c-2.5,2,14.7,6.6,17,14.8
	c3.3,11.8-23.6,25.5-21.1,31.2c2.7,6.2,34.2-6.9,77.9-6c14,0.3,46.7,0.9,51.4,14.6c4.2,12.2-16,28.6-13.3,31.4
	c2.7,2.8,19.3-15.7,45.7-22.6c22.2-5.8,48.5-2.7,51.6,6.9c3.3,10.3-21.2,24.9-18.9,28.6c2.5,3.9,44.5-22.9,71-24.1
	c65.6-3.1,81.8,15.1,125.9,1.6c16.3-5-2.9,24.5-29.2,52.1c-1.4,1.4,96.9-43.9,100.8-54c5.5-14.4,84.2-28.3,93.2-50.6
	C574.2,102.9,569.6,96.2,568.4,95.2z"/>
</svg>
