<?xml version="1.0" encoding="utf-8"?>
<!-- Generator: Adobe Illustrator 18.1.1, SVG Export Plug-In . SVG Version: 6.00 Build 0)  -->
<svg version="1.1" id="Layer_1" xmlns="http://www.w3.org/2000/svg" xmlns:xlink="http://www.w3.org/1999/xlink" x="0px" y="0px"
	 viewBox="0 0 600 300" enable-background="new 0 0 600 300" xml:space="preserve">
<path fill="#FFFFFF" stroke="#000000" stroke-miterlimit="10" d="M470.1,58.3c-7.4,1.2-9.1,1.3-6.3-7.3c0.6-1.9-11,7.7-9.9-4.3
	c0.6-6.5-29.8,43.6-37.9,58.8c-11,20.6-153.9,13.9-175-8.1c-8.8-9.2-26.3-44.9-26.3-41.6c0,8.5-8.4,1.8-9.6,2.9
	c-1.1,1.1,0.7,8.1-9.9,3.5c-3-1.3,34.2,48.8,19.3,57.2c-9.1,5.2-82-5.1-99.6,12.1c-2.8,2.7-10.5,9.2-25.4,14.3
	c-10.3,3.6-76.4-3-79.5,0.8c-2,2.5,42.8,19.7,50.4,23.5c21.7,10.7,65-12.2,68.9-14.4c33.6-18.7,77.6-5.6,87.7,3.4
	c13.2,11.8,39.1,66.3,38.3,62.4c-2.3-11,7.4-1.6,8.2-4.8c0.9-3.8-3.2-7.4,5-4.2c7.9,3.1-21.1-34.7-18.8-41.3
	c6.6-18.4,159.6-15.4,169.9-1.1c12.1,16.9-4.2,52-0.1,48.8c10.4-8.3,5.3,8.6,9.4,3.5c5.4-6.7,6.1-0.7,8.5,6.1
	c0.7,1.9,10.1-51.7,16.4-60.5c26.8-37.9,78.1,13.6,117.7-24.1c9.9-9.4,9.6-19.4-1.1-25.2c-45.6-24.9-68.8,14.7-117.7-12.5
	C438.8,98.3,465,63.4,470.1,58.3"/>
</svg>
