<?xml version="1.0" encoding="utf-8"?>
<!-- Generator: Adobe Illustrator 18.1.1, SVG Export Plug-In . SVG Version: 6.00 Build 0)  -->
<svg version="1.1" id="Layer_1" xmlns="http://www.w3.org/2000/svg" xmlns:xlink="http://www.w3.org/1999/xlink" x="0px" y="0px"
	 viewBox="0 0 600 300" enable-background="new 0 0 600 300" xml:space="preserve">
<path fill="#FFFFFF" stroke="#000000" stroke-miterlimit="10" d="M355.5,81c28.5,14.7,47.4,29.3,35,28.7
	c-39.6-1.8-57.5,3.5-83.9,7.1c-26.5,3.6-43.1,2.2-48.1,2.3c-5.5,0.1-12-2.2-20.6-3c-10.5-0.9-8.8,0.4-23.8-3.7
	c-22.6-6.1-4.8-3.3-29.6-22.7c-12-9.4-21.3,12.9-14.7,22.2c7,9.9-48.3,14.1-66.4,7.5c-9.9-3.6-18.8-14.6-34-19.8
	c-3.6-1.2-22.3-2.2-31.8,5.2c-8.6,6.7-18.6,7.6-22.4,10.7c-2.4,2,12,14.3,16.6,21.4c7.9,12.3,19.2,14.6,23.7,14.6
	c13.2,0.2,29.3-3,42.7-1.3c13.9,1.7,67.3,20.4,57.3,31c-9.8,10.4-13.2,25.9-3.4,24.3c37.3-6.3,19.7-16.5,46.5-11.9
	c8.4,1.4,9.7,0.6,19.3,3.4c10.2,3,14.8,3.2,18.7,4.8c4.2,1.8,64.8,3.2,90.7-2.4c48.5-10.5,28.1-6,71.8-20.6
	c16.2-5.4,5.8,22.1-19.8,50.4c-1.3,1.5,93.4-51.6,99.7-60.5c8.6-12.1,82.4-26.6,90.9-49.2c4.8-12.8-4.6-23.5-5.9-24.5
	c-29.2-23.2-94.8-6.6-107.4-9.1C449.5,84.6,353.4,79.9,355.5,81"/>
</svg>
