<?xml version="1.0" encoding="utf-8"?>
<!-- Generator: Adobe Illustrator 18.1.1, SVG Export Plug-In . SVG Version: 6.00 Build 0)  -->
<svg version="1.1" id="Layer_1" xmlns="http://www.w3.org/2000/svg" xmlns:xlink="http://www.w3.org/1999/xlink" x="0px" y="0px"
	 viewBox="0 0 600 300" enable-background="new 0 0 600 300" xml:space="preserve">
<path fill="#FFFFFF" stroke="#000000" stroke-miterlimit="10" d="M410.5,46.4c0.3,7.5,0.2,9.2-8,5.4c-1.8-0.9,6.3,11.9-5.5,9.3
	c-6.3-1.4,27.2,29.3,19.1,44.4c-11,20.6-155.9,19.1-173.2-0.4c-4.2-4.7,10.5-40.9,7.6-39.1c-7.2,4.5-5.9-6.2-7.5-6.6
	c-1.5-0.4-6.5,4.9-8.2-6.6c-0.5-3.2-8.5,53.8-20.2,66.6c-7.1,7.7-72.8,2.9-85.3,0.7c-8.5-1.5-47.4,4-69.9,19.9
	c-3.6,2.6-44.7,32.2-47.8,36c-2,2.5,63.9-18.3,71.7-21.7c12.9-5.5,37.8-8.1,42.3-8.8c11.4-1.8,79.6,9.6,92.6,13.2
	c15.8,4.4-26.9,54.4-23.5,52.2c9.5-6.1,4.1,6.4,7.4,6c3.9-0.5,5.7-5.6,5.7,3.2c0,8.5,33.9-43,42.1-48.9
	c22.1-15.8,166.2-18.3,169.9-1.1c3.7,17.3,54.5,56.7,53.2,51.6c-3.2-12.9,10-1.2,7.1-7.1c-3.9-7.7,1.9-5.8,9-5.2
	c2,0.2-41.4-32.7-35.2-41.6c26.8-37.9,78.1,13.6,117.7-24.1c9.9-9.4,9.6-19.4-1.1-25.2c-45.6-24.9-68.8,14.7-117.7-12.5
	C438.8,98.3,415,52.1,410.5,46.4"/>
</svg>
