<?xml version="1.0" encoding="utf-8"?>
<!-- Generator: Adobe Illustrator 18.1.1, SVG Export Plug-In . SVG Version: 6.00 Build 0)  -->
<svg version="1.1" id="Layer_1" xmlns="http://www.w3.org/2000/svg" xmlns:xlink="http://www.w3.org/1999/xlink" x="0px" y="0px"
	 viewBox="0 0 600 300" enable-background="new 0 0 600 300" xml:space="preserve">
<path fill="#FFFFFF" stroke="#000000" stroke-miterlimit="10" d="M384.7,51.8c20.8,24.4,32.7,45.1,21.4,39.8
	c-35.9-16.7-54.5-18.6-80.3-25.3C300,59.6,243.5,66.9,239,69c-5,2.3-11.9,2.9-20,5.8c-9.9,3.5-7.9,3.9-23.2,6.4
	c-23.1,3.8-5.7-1-36.3-8.6c-14.8-3.7-14.1,20.5-4.3,26.3c10.4,6.1-38.2,32.7-57.5,34.1c-10.5,0.8-23.2-5.6-39.1-4.1
	c-3.8,0.4-21.2,7.1-26.9,17.8c-5.1,9.6-13.9,14.6-16.1,18.9c-1.4,2.8,16.8,8.1,23.9,12.7c12.3,8,23.5,5.4,27.6,3.6
	c12.1-5.2,25.5-14.7,38.4-18.8c13.3-4.1,69.8-9,65,4.7c-4.7,13.5-1.4,29.1,6.9,23.5c31.4-21,11.2-23.1,37.6-29.9
	c8.3-2.1,9.1-3.4,19-4.8c10.6-1.4,14.9-3.2,19-3.3c4.6-0.1,34.4-7.3,60.6-2.6c48.9,8.7,28.2,5.1,74.3,8.2c17,1.1-3.1,22.7-37.5,39.1
	c-1.8,0.8,106.1-12.3,115.3-18.1c12.5-7.9,86.3,6.7,102.7-11c9.3-10,4.7-23.5,3.9-24.9c-18.2-32.6-85.2-42.1-95.9-49.2
	C470.3,90.8,383.2,50,384.7,51.8"/>
</svg>
