<?xml version="1.0" encoding="utf-8"?>
<!-- Generator: Adobe Illustrator 18.1.1, SVG Export Plug-In . SVG Version: 6.00 Build 0)  -->
<svg version="1.1" id="Layer_1" xmlns="http://www.w3.org/2000/svg" xmlns:xlink="http://www.w3.org/1999/xlink" x="0px" y="0px"
	 viewBox="0 0 600 300" enable-background="new 0 0 600 300" xml:space="preserve">
<path fill="#FFFFFF" stroke="#000000" stroke-miterlimit="10" d="M590.9,181.5c-20.4-31.3-84-37.8-109.1-42.3
	c-7.3-1.3-13.8-6.1-25.7-3.4c-94.8,21.6-122.6-0.5-160.7-18.2c-24.9-11.5-45.4-29.1-49-24.9c-3.6,4.1,16.5,21.8,11.3,30.7
	c-5.2,9.1-35.3,6.7-57.5-7.6c-19.7-12.7-28.6-31.9-31.4-30.3c-3.6,2,15.8,30.2,6.7,42.4c-8.6,11.4-38.6,4.2-56.6-2.9
	c-39.2-15.5-62.6-47.5-66.5-44.2c-2.9,2.5,12.6,19,6.6,31.6c-4.7,9.8-15.5,12.6-19,15.9c-2.3,2.2,15.3,5.2,18.3,13.2
	c4.3,11.5-21.2,27.4-18.2,33c3.2,5.9,33.5-9.9,77.1-12.9c13.9-1,46.6-3.2,52.5,10c5.3,11.8-13.4,29.9-10.5,32.5
	c2.9,2.5,17.9-17.4,43.5-26.6c21.6-7.7,48.1-7,52,2.3c4.2,9.9-19,26.7-16.3,30.2c2.8,3.6,26.2-27.6,52.6-25.4
	c65.4,5.6,75.3,18.4,121.4,18.4c17.1,0-9.9,22.5-43.2,41.2c-1.7,1,105.5-13.5,112.2-22.1c9.5-12.2,88.8-2.3,104-21.1
	C594.1,190.6,591.7,182.8,590.9,181.5z"/>
</svg>
