<?xml version="1.0" encoding="utf-8"?>
<!-- Generator: Adobe Illustrator 18.1.1, SVG Export Plug-In . SVG Version: 6.00 Build 0)  -->
<svg version="1.1" id="Layer_1" xmlns="http://www.w3.org/2000/svg" xmlns:xlink="http://www.w3.org/1999/xlink" x="0px" y="0px"
	 viewBox="0 0 600 300" enable-background="new 0 0 600 300" xml:space="preserve">
<path fill="#FFFFFF" stroke="#000000" stroke-miterlimit="10" d="M394.1,39.5c18.5,26.2,34.6,53.2,23.8,47
	c-34.2-19.9-128.1-6.8-154.6-9.7c-27.3-3-52.3-13.1-54.4-8c-2.1,5.1,22.6,15.4,20.5,25.5c-2.1,10.3-31.3,17.6-56.9,11.1
	c-22.7-5.8-37.2-21.1-39.4-18.7c-2.8,3,24.7,23.6,19.9,38.1c-4.5,13.6-35.3,16.3-54.5,15.3c-42.1-2.2-76.9-23.1-79.5-18.7
	c-2,3.3,20.5,12,18.8,25.9c-1.3,10.8-8,19-10.3,23.4c-1.5,2.8,14.7,1.6,20.1,8.2c7.8,9.5-12.6,29.1-8,33.4c4.9,4.6,28.6-20,69-36.8
	c12.9-5.4,43.2-17.9,53-7.2c8.8,9.5-3.2,32.6,0.4,34.1c3.6,1.5,11.4-22.1,32.8-39c18-14.2,43.3-21.9,50-14.4
	c7.2,8.1-9.4,31.4-5.8,33.8c3.8,2.5,16-34.5,41.8-40.8c63.8-15.6,69.5-0.9,115.1,6.4c16.8,2.7-13.4,20.7-49.2,33.8
	c-1.9,0.7,107.1-5.1,116.8-10c13.2-6.7,84.9,17.1,102.9,1.1c10.2-9.1,6.8-23,6.2-24.4c-15.1-34.1-78.1-41.2-88.1-49.2
	C478.6,94.8,392.8,37.6,394.1,39.5"/>
</svg>
