<?xml version="1.0" encoding="utf-8"?>
<!-- Generator: Adobe Illustrator 18.1.1, SVG Export Plug-In . SVG Version: 6.00 Build 0)  -->
<svg version="1.1" id="Layer_1" xmlns="http://www.w3.org/2000/svg" xmlns:xlink="http://www.w3.org/1999/xlink" x="0px" y="0px"
	 viewBox="0 0 600 200" enable-background="new 0 0 600 200" xml:space="preserve">
<path fill="#FFFFFF" stroke="#000000" stroke-miterlimit="10" d="M338.7,54.5c18.7,10.5,36.1,22.1,27.8,21.4
	c-26.3-2.1-64.6,11.8-80.5,3.9c-16.4-8.1-29.7-20.3-32.2-17.6c-2.5,2.7,10.5,14.9,6.9,20.7c-3.7,5.9-23.7,3.8-38.1-6.2
	c-12.9-8.9-18.4-21.8-20.3-20.8c-2.5,1.3,10,20.5,3.7,28.4c-5.9,7.5-25.8,2.1-37.6-3c-25.9-11.1-42.8-32.2-45.4-30.1
	c-2,1.6,10,12.3,5.7,20.5c-3.3,6.5-9.4,10.1-11.8,12.3c-1.5,1.4,8.9,4.4,10.7,9.7c2.7,7.7-14.6,15.3-12.7,19.1
	c2.1,4,22.5-5.9,51.6-7.1c9.3-0.4,31.1-1.3,34.8,7.7c3.3,8-9.5,19.7-7.6,21.5c1.9,1.7,12.3-11.2,29.5-16.9
	c14.5-4.7,32.2-3.7,34.6,2.5c2.7,6.7-13.1,17.5-11.5,19.8c1.8,2.5,18-17.9,35.5-15.9c43.5,5,59.5,3.7,89.1-5.1
	c10.9-3.2-2.1,16.3-19.9,34.5c-0.9,0.9,63-33.9,67.4-39.6c6-7.8,56-14.1,62.2-28.9c3.5-8.4-2.5-15.8-3.3-16.5
	c-18.9-16.2-58.9-2.3-67.1-4.3C405.3,63.5,337.3,53.7,338.7,54.5"/>
</svg>
