<?xml version="1.0" encoding="utf-8"?>
<!-- Generator: Adobe Illustrator 18.1.1, SVG Export Plug-In . SVG Version: 6.00 Build 0)  -->
<svg version="1.1" id="Layer_1" xmlns="http://www.w3.org/2000/svg" xmlns:xlink="http://www.w3.org/1999/xlink" x="0px" y="0px"
	 viewBox="0 0 500 500" style="enable-background:new 0 0 500 500;" xml:space="preserve">
<style type="text/css">
	.st0{opacity:0;fill:#FFFFFF;}
	.st1{fill:#662D91;stroke:#FFFFFF;stroke-width:12;stroke-miterlimit:10;}
	.st2{fill:#FFFFFF;}
	.st3{fill:none;stroke:#FFFFFF;stroke-width:6;stroke-miterlimit:10;}
</style>
<path class="st0" d="M243.4,27.7L27.7,243.4c-3.6,3.6-3.6,9.6,0,13.2l215.7,215.7c3.6,3.6,9.6,3.6,13.2,0l215.7-215.7
	c3.6-3.6,3.6-9.6,0-13.2L256.6,27.7C253,24.1,247,24.1,243.4,27.7z"/>
<path class="st1" d="M243.4,27.7L27.7,243.4c-3.6,3.6-3.6,9.6,0,13.2l215.7,215.7c3.6,3.6,9.6,3.6,13.2,0l215.7-215.7
	c3.6-3.6,3.6-9.6,0-13.2L256.6,27.7C253,24.1,247,24.1,243.4,27.7z"/>
<g>
	<path class="st2" d="M197.3,184.6c-1.9,1.3-4.3,1.8-6.4,1.8c-4,0-7.1-2.8-8.1-6.5c-2.6,4.2-6.8,6.4-11.7,6.4
		c-9,0-15.4-7.4-15.4-16.1c0-8.8,6.4-16.2,15.4-16.2c4.6,0,8.6,2,11.2,5.8v-5h6.3v21.4c0,2.5,1.6,4.4,4.2,4.4c1.7,0,3.2-0.6,4.5-1.8
		V184.6z M182.4,167.5c0-0.3-0.5-1.7-0.7-1.8c-1.7-3.7-5.3-6.1-9.3-6.1c-5.8,0-10.4,5-10.4,10.7c0,5.7,4.5,10.6,10.4,10.6
		c4,0,7.7-2.4,9.3-6c0.2-0.3,0.7-1.7,0.7-1.9V167.5z"/>
	<path class="st2" d="M219.2,184.6c-1.9,1.3-4.3,1.7-6.4,1.7c-5.3,0-8.5-4.5-8.5-9.5v-53.1h6.3v52.5c0,2.5,1.6,4.4,4.2,4.4
		c1.7,0,3.2-0.5,4.5-1.7V184.6z"/>
	<path class="st2" d="M243.7,186.4c-4.7,0-8.7-2.1-11.3-6v24.7h-6.3v-50.2h6.3v5.2c2.6-3.9,6.6-6,11.3-6c9,0,15.4,7.4,15.4,16.2
		C259.1,179,252.6,186.4,243.7,186.4z M242.5,159.6c-4.2,0-7.8,2.5-9.5,6.3c-0.2,0.3-0.7,1.7-0.7,1.9v5c0,0.3,0.5,1.7,0.7,1.9
		c1.7,3.7,5.3,6.3,9.5,6.3c5.7,0,10.4-5,10.4-10.6C252.9,164.5,248.3,159.6,242.5,159.6z"/>
	<path class="st2" d="M302,184.6c-1.9,1.3-4.3,1.7-6.4,1.7c-5.3,0-8.5-4.5-8.5-9.5v-10.1c0-4.2-2.3-7.2-6.7-7.2
		c-3.7,0-7.7,3.6-7.7,9.4v16.6h-6.3v-61.8h6.3v35.5c1.9-3.2,5.2-5.2,9-5.2c7.1,0,11.7,5.3,11.7,12.2v10c0,2.5,1.6,4.4,4.2,4.4
		c1.7,0,3.2-0.5,4.5-1.7V184.6z"/>
	<path class="st2" d="M349.1,184.6c-1.9,1.3-4.3,1.8-6.4,1.8c-4,0-7.1-2.8-8.1-6.5c-2.6,4.2-6.8,6.4-11.7,6.4
		c-9,0-15.4-7.4-15.4-16.1c0-8.8,6.4-16.2,15.4-16.2c4.6,0,8.6,2,11.2,5.8v-5h6.3v21.4c0,2.5,1.6,4.4,4.2,4.4c1.7,0,3.2-0.6,4.5-1.8
		V184.6z M334.1,167.5c0-0.3-0.5-1.7-0.7-1.8c-1.7-3.7-5.3-6.1-9.3-6.1c-5.8,0-10.4,5-10.4,10.7c0,5.7,4.5,10.6,10.4,10.6
		c4,0,7.7-2.4,9.3-6c0.2-0.3,0.7-1.7,0.7-1.9V167.5z"/>
</g>
<line class="st3" x1="30" y1="250.3" x2="220" y2="249.8"/>
<line class="st3" x1="280" y1="250.3" x2="470" y2="249.8"/>
<g>
	<path class="st2" d="M179,338.9c0,6.3-4.4,13.2-11,13.9l-2.2-5.4c3.9-0.6,7-4.7,7-8.5v-11.4c-2.6,3.8-6.6,5.9-11.3,5.9
		c-9,0-15.4-7.4-15.4-16.1c0-8.8,6.4-16.2,15.4-16.2c4.7,0,8.7,2.1,11.3,6V302h6.3V338.9z M172.8,314.9c0-0.3-0.5-1.7-0.6-1.9
		c-1.7-3.7-5.4-6.4-9.5-6.4c-5.8,0-10.4,5-10.4,10.7c0,5.7,4.5,10.6,10.4,10.6c4.1,0,7.8-2.5,9.5-6.4c0.1-0.3,0.6-1.6,0.6-1.9V314.9
		z"/>
	<path class="st2" d="M195.3,326.1c1.8,1.2,3.9,1.8,6.1,1.8c3.3,0,6.8-0.7,9.5-2.8v6.3c-2.9,1.5-6.4,2-9.5,2c-9.3,0-17-6.7-17-16.3
		c0-8.6,7.1-16,15.7-16c5.5,0,10.1,2.5,13.4,6.9L195.3,326.1z M205.6,308.7c-1.6-1.3-3.7-2-5.7-2c-5.8,0-9.8,4.8-9.8,10.4
		c0,2,0.5,3.9,1.7,5.6L205.6,308.7z"/>
	<path class="st2" d="M255.3,331.7c-1.9,1.3-4.3,1.7-6.4,1.7c-5.3,0-8.5-4.5-8.5-9.5v-10.1c0-4.3-2.3-7.3-6.7-7.3
		c-4.2,0-7.7,4.1-7.7,9.1v17h-6.3V302h6.3v4.5c1.8-3.3,5.1-5.3,9-5.3c7.1,0,11.7,5.2,11.7,12.2v10c0,2.5,1.6,4.3,4.3,4.3
		c1.7,0,3.1-0.5,4.4-1.7V331.7z"/>
	<path class="st2" d="M270.8,326.1c1.8,1.2,3.9,1.8,6.1,1.8c3.3,0,6.8-0.7,9.5-2.8v6.3c-2.9,1.5-6.4,2-9.5,2c-9.3,0-17-6.7-17-16.3
		c0-8.6,7.1-16,15.7-16c5.5,0,10.1,2.5,13.4,6.9L270.8,326.1z M281.1,308.7c-1.6-1.3-3.7-2-5.7-2c-5.8,0-9.8,4.8-9.8,10.4
		c0,2,0.5,3.9,1.7,5.6L281.1,308.7z"/>
	<path class="st2" d="M300.6,333.5c-2.3,0-4.9-0.4-6.9-1.7v-6.2c1.5,1.3,3.3,2.3,5.3,2.3c2.3,0,4.3-1.8,4.3-4.3
		c0-4.9-6.8-8.1-6.8-13.9c0-4,2.1-7.2,5.7-8.9l3.5,4.5c-1.7,0.9-2.9,2.4-2.9,4.4c0,4.4,6.7,7.5,6.7,14.5
		C309.4,329.3,305.8,333.5,300.6,333.5z"/>
	<path class="st2" d="M319.3,289.9c-2.6,0-4.8-2.2-4.8-4.9c0-2.6,2.2-4.8,4.8-4.8c2.7,0,4.9,2.2,4.9,4.8
		C324.2,287.7,322,289.9,319.3,289.9z M331.1,331.7c-1.8,1.3-4.2,1.7-6.4,1.7c-5.2,0-8.5-4.5-8.5-9.5v-22h6.3v21.4
		c0,2.4,1.6,4.3,4.2,4.3c1.7,0,3.2-0.5,4.5-1.7V331.7z"/>
	<path class="st2" d="M345.1,333.5c-2.3,0-4.9-0.4-6.9-1.7v-6.2c1.5,1.3,3.3,2.3,5.3,2.3c2.3,0,4.3-1.8,4.3-4.3
		c0-4.9-6.8-8.1-6.8-13.9c0-4,2.1-7.2,5.7-8.9l3.5,4.5c-1.7,0.9-2.9,2.4-2.9,4.4c0,4.4,6.7,7.5,6.7,14.5
		C354,329.3,350.3,333.5,345.1,333.5z"/>
</g>
<g>
	<path class="st2" d="M238.3,258.2c-5.1,0-9.3-4.2-9.3-9.3s4.2-9.3,9.3-9.3c5.1,0,9.2,4.2,9.2,9.3S243.4,258.2,238.3,258.2z
		 M244.1,247.1c-0.5,0.5-1.2,0.7-1.8,0.7c-1.6,0-3-1.3-3-2.9c0-0.6,0.3-1.3,0.7-1.9c-0.5-0.1-1.1-0.3-1.6-0.3
		c-3.4,0-6.1,2.8-6.1,6.2c0,3.4,2.8,6,6.1,6c3.3,0,6-2.7,6-6C244.4,248.3,244.3,247.7,244.1,247.1z"/>
	<path class="st2" d="M269.7,226.6c-1.3-1-2.6-1.4-4.2-1.4c-2.6,0-4.3,2-4.3,4.4V240h6.2v3.5h-6.2v17.8c0,3.6-2.5,7.6-6.4,8
		l-1.3-3.1c2.3-0.3,4.1-2.7,4.1-4.9v-17.8h-6.4V240h6.4v-10.5c0-4.6,3.2-8,7.9-8c1.5,0,2.9,0.4,4.2,1.3V226.6z"/>
</g>
<g>
</g>
<g>
</g>
<g>
</g>
<g>
</g>
<g>
</g>
<g>
</g>
<g>
</g>
<g>
</g>
<g>
</g>
<g>
</g>
<g>
</g>
<g>
</g>
<g>
</g>
<g>
</g>
<g>
</g>
</svg>
