<?xml version="1.0" encoding="utf-8"?>
<!-- Generator: Adobe Illustrator 18.1.1, SVG Export Plug-In . SVG Version: 6.00 Build 0)  -->
<svg version="1.1" id="Layer_1" xmlns="http://www.w3.org/2000/svg" xmlns:xlink="http://www.w3.org/1999/xlink" x="0px" y="0px"
     viewBox="0 0 600 300" style="enable-background:new 0 0 600 300;" xml:space="preserve">
<path id="fish" fill="#FFFFFF" stroke="#000000" stroke-miterlimit="10" d="M355.5,81c28.5,14.7,47.4,29.3,35,28.7
    c-39.6-1.8-57.5,3.5-83.9,7.1c-26.5,3.6-43.1,2.2-48.1,2.3c-5.5,0.1-12-2.2-20.6-3c-10.5-0.9-8.8,0.4-23.8-3.7
    c-22.6-6.1-4.8-3.3-29.6-22.7c-12-9.4-21.3,12.9-14.7,22.2c7,9.9-48.3,14.1-66.4,7.5c-9.9-3.6-18.8-14.6-34-19.8
    c-3.6-1.2-22.3-2.2-31.8,5.2c-8.6,6.7-18.6,7.6-22.4,10.7c-2.4,2,12,14.3,16.6,21.4c7.9,12.3,19.2,14.6,23.7,14.6
    c13.2,0.2,29.3-3,42.7-1.3c13.9,1.7,67.3,20.4,57.3,31c-9.8,10.4-13.2,25.9-3.4,24.3c37.3-6.3,19.7-16.5,46.5-11.9
    c8.4,1.4,9.7,0.6,19.3,3.4c10.2,3,14.8,3.2,18.7,4.8c4.2,1.8,64.8,3.2,90.7-2.4c48.5-10.5,28.1-6,71.8-20.6
    c16.2-5.4,5.8,22.1-19.8,50.4c-1.3,1.5,93.4-51.6,99.7-60.5c8.6-12.1,82.4-26.6,90.9-49.2c4.8-12.8-4.6-23.5-5.9-24.5
    c-29.2-23.2-94.8-6.6-107.4-9.1C449.5,84.6,353.4,79.9,355.5,81"/>
<animate
    xlink:href="#fish"
    attributeName="d"
    attributeType="XML"
    dur="2000ms" 
    repeatCount="indefinite"
    values="M355.5,81c28.5,14.7,47.4,29.3,35,28.7
    c-39.6-1.8-57.5,3.5-83.9,7.1c-26.5,3.6-43.1,2.2-48.1,2.3c-5.5,0.1-12-2.2-20.6-3c-10.5-0.9-8.8,0.4-23.8-3.7
    c-22.6-6.1-4.8-3.3-29.6-22.7c-12-9.4-21.3,12.9-14.7,22.2c7,9.9-48.3,14.1-66.4,7.5c-9.9-3.6-18.8-14.6-34-19.8
    c-3.6-1.2-22.3-2.2-31.8,5.2c-8.6,6.7-18.6,7.6-22.4,10.7c-2.4,2,12,14.3,16.6,21.4c7.9,12.3,19.2,14.6,23.7,14.6
    c13.2,0.2,29.3-3,42.7-1.3c13.9,1.7,67.3,20.4,57.3,31c-9.8,10.4-13.2,25.9-3.4,24.3c37.3-6.3,19.7-16.5,46.5-11.9
    c8.4,1.4,9.7,0.6,19.3,3.4c10.2,3,14.8,3.2,18.7,4.8c4.2,1.8,64.8,3.2,90.7-2.4c48.5-10.5,28.1-6,71.8-20.6
    c16.2-5.4,5.8,22.1-19.8,50.4c-1.3,1.5,93.4-51.6,99.7-60.5c8.6-12.1,82.4-26.6,90.9-49.2c4.8-12.8-4.6-23.5-5.9-24.5
    c-29.2-23.2-94.8-6.6-107.4-9.1C449.5,84.6,353.4,79.9,355.5,81;

    M384.7,51.8c20.8,24.4,32.7,45.1,21.4,39.8
    c-35.9-16.7-54.5-18.6-80.3-25.3C300,59.6,243.5,66.9,239,69c-5,2.3-11.9,2.9-20,5.8c-9.9,3.5-7.9,3.9-23.2,6.4
    c-23.1,3.8-5.7-1-36.3-8.6c-14.8-3.7-14.1,20.5-4.3,26.3c10.4,6.1-38.2,32.7-57.5,34.1c-10.5,0.8-23.2-5.6-39.1-4.1
    c-3.8,0.4-21.2,7.1-26.9,17.8c-5.1,9.6-13.9,14.6-16.1,18.9c-1.4,2.8,16.8,8.1,23.9,12.7c12.3,8,23.5,5.4,27.6,3.6
    c12.1-5.2,25.5-14.7,38.4-18.8c13.3-4.1,69.8-9,65,4.7c-4.7,13.5-1.4,29.1,6.9,23.5c31.4-21,11.2-23.1,37.6-29.9
    c8.3-2.1,9.1-3.4,19-4.8c10.6-1.4,14.9-3.2,19-3.3c4.6-0.1,34.4-7.3,60.6-2.6c48.9,8.7,28.2,5.1,74.3,8.2c17,1.1-3.1,22.7-37.5,39.1
    c-1.8,0.8,106.1-12.3,115.3-18.1c12.5-7.9,86.3,6.7,102.7-11c9.3-10,4.7-23.5,3.9-24.9c-18.2-32.6-85.2-42.1-95.9-49.2
    C470.3,90.8,383.2,50,384.7,51.8;

    M355.5,81c28.5,14.7,47.4,29.3,35,28.7
    c-39.6-1.8-57.5,3.5-83.9,7.1c-26.5,3.6-43.1,2.2-48.1,2.3c-5.5,0.1-12-2.2-20.6-3c-10.5-0.9-8.8,0.4-23.8-3.7
    c-22.6-6.1-4.8-3.3-29.6-22.7c-12-9.4-21.3,12.9-14.7,22.2c7,9.9-48.3,14.1-66.4,7.5c-9.9-3.6-18.8-14.6-34-19.8
    c-3.6-1.2-22.3-2.2-31.8,5.2c-8.6,6.7-18.6,7.6-22.4,10.7c-2.4,2,12,14.3,16.6,21.4c7.9,12.3,19.2,14.6,23.7,14.6
    c13.2,0.2,29.3-3,42.7-1.3c13.9,1.7,67.3,20.4,57.3,31c-9.8,10.4-13.2,25.9-3.4,24.3c37.3-6.3,19.7-16.5,46.5-11.9
    c8.4,1.4,9.7,0.6,19.3,3.4c10.2,3,14.8,3.2,18.7,4.8c4.2,1.8,64.8,3.2,90.7-2.4c48.5-10.5,28.1-6,71.8-20.6
    c16.2-5.4,5.8,22.1-19.8,50.4c-1.3,1.5,93.4-51.6,99.7-60.5c8.6-12.1,82.4-26.6,90.9-49.2c4.8-12.8-4.6-23.5-5.9-24.5
    c-29.2-23.2-94.8-6.6-107.4-9.1C449.5,84.6,353.4,79.9,355.5,81"/>
</svg>
