<?xml version="1.0" encoding="utf-8"?>
<!-- Generator: Adobe Illustrator 18.1.1, SVG Export Plug-In . SVG Version: 6.00 Build 0)  -->
<svg version="1.1" id="Layer_1" xmlns="http://www.w3.org/2000/svg" xmlns:xlink="http://www.w3.org/1999/xlink" x="0px" y="0px"
     viewBox="0 0 600 300" style="enable-background:new 0 0 600 300;" xml:space="preserve">
<path id="fish" fill="#FFFFFF" stroke="#000000" stroke-miterlimit="10" d="M358,81.8c28,15.7,54.2,33.1,41.7,32.1
    c-39.5-3.2-96.9,17.7-120.8,5.8c-24.6-12.2-44.5-30.4-48.3-26.4c-3.7,4,15.8,22.3,10.4,31.1c-5.5,8.9-35.5,5.7-57.2-9.3
    c-19.3-13.3-27.6-32.7-30.5-31.2c-3.7,1.9,15,30.7,5.5,42.6c-8.9,11.2-38.7,3.1-56.4-4.5c-38.8-16.7-64.2-48.3-68.1-45.1
    c-3,2.4,15,18.4,8.6,30.8c-5,9.7-14.1,15.1-17.7,18.4c-2.3,2.1,13.3,6.6,16,14.6c4,11.6-21.9,23-19.1,28.6c3.1,6,33.8-8.9,77.4-10.6
    c14-0.6,46.7-1.9,52.2,11.6c4.9,12-14.3,29.5-11.4,32.2c2.8,2.6,18.4-16.8,44.3-25.3c21.8-7.1,48.3-5.6,51.9,3.8
    c4,10.1-19.7,26.2-17.2,29.7c2.7,3.7,27-26.8,53.3-23.8c65.2,7.5,89.3,5.5,133.6-7.6c16.4-4.8-3.1,24.4-29.8,51.7
    c-1.4,1.4,94.5-50.8,101.1-59.4c9-11.7,84-21.2,93.3-43.4c5.2-12.6-3.8-23.7-5-24.7c-28.4-24.3-88.3-3.5-100.7-6.4
    C458,95.2,355.9,80.6,358,81.8"/>
<animate
    xlink:href="#fish"
    attributeName="d"
    attributeType="XML"
    dur="2000ms" 
    repeatCount="indefinite"
    values="M358,81.8c28,15.7,54.2,33.1,41.7,32.1
    c-39.5-3.2-96.9,17.7-120.8,5.8c-24.6-12.2-44.5-30.4-48.3-26.4c-3.7,4,15.8,22.3,10.4,31.1c-5.5,8.9-35.5,5.7-57.2-9.3
    c-19.3-13.3-27.6-32.7-30.5-31.2c-3.7,1.9,15,30.7,5.5,42.6c-8.9,11.2-38.7,3.1-56.4-4.5c-38.8-16.7-64.2-48.3-68.1-45.1
    c-3,2.4,15,18.4,8.6,30.8c-5,9.7-14.1,15.1-17.7,18.4c-2.3,2.1,13.3,6.6,16,14.6c4,11.6-21.9,23-19.1,28.6c3.1,6,33.8-8.9,77.4-10.6
    c14-0.6,46.7-1.9,52.2,11.6c4.9,12-14.3,29.5-11.4,32.2c2.8,2.6,18.4-16.8,44.3-25.3c21.8-7.1,48.3-5.6,51.9,3.8
    c4,10.1-19.7,26.2-17.2,29.7c2.7,3.7,27-26.8,53.3-23.8c65.2,7.5,89.3,5.5,133.6-7.6c16.4-4.8-3.1,24.4-29.8,51.7
    c-1.4,1.4,94.5-50.8,101.1-59.4c9-11.7,84-21.2,93.3-43.4c5.2-12.6-3.8-23.7-5-24.7c-28.4-24.3-88.3-3.5-100.7-6.4
    C458,95.2,355.9,80.6,358,81.8;

    M394.1,39.5c18.5,26.2,34.6,53.2,23.8,47
    c-34.2-19.9-128.1-6.8-154.6-9.7c-27.3-3-52.3-13.1-54.4-8c-2.1,5.1,22.6,15.4,20.5,25.5c-2.1,10.3-31.3,17.6-56.9,11.1
    c-22.7-5.8-37.2-21.1-39.4-18.7c-2.8,3,24.7,23.6,19.9,38.1c-4.5,13.6-35.3,16.3-54.5,15.3c-42.1-2.2-76.9-23.1-79.5-18.7
    c-2,3.3,20.5,12,18.8,25.9c-1.3,10.8-8,19-10.3,23.4c-1.5,2.8,14.7,1.6,20.1,8.2c7.8,9.5-12.6,29.1-8,33.4c4.9,4.6,28.6-20,69-36.8
    c12.9-5.4,43.2-17.9,53-7.2c8.8,9.5-3.2,32.6,0.4,34.1c3.6,1.5,11.4-22.1,32.8-39c18-14.2,43.3-21.9,50-14.4
    c7.2,8.1-9.4,31.4-5.8,33.8c3.8,2.5,16-34.5,41.8-40.8c63.8-15.6,69.5-0.9,115.1,6.4c16.8,2.7-13.4,20.7-49.2,33.8
    c-1.9,0.7,107.1-5.1,116.8-10c13.2-6.7,84.9,17.1,102.9,1.1c10.2-9.1,6.8-23,6.2-24.4c-15.1-34.1-78.1-41.2-88.1-49.2
    C478.6,94.8,392.8,37.6,394.1,39.5;

    M358,81.8c28,15.7,54.2,33.1,41.7,32.1
    c-39.5-3.2-96.9,17.7-120.8,5.8c-24.6-12.2-44.5-30.4-48.3-26.4c-3.7,4,15.8,22.3,10.4,31.1c-5.5,8.9-35.5,5.7-57.2-9.3
    c-19.3-13.3-27.6-32.7-30.5-31.2c-3.7,1.9,15,30.7,5.5,42.6c-8.9,11.2-38.7,3.1-56.4-4.5c-38.8-16.7-64.2-48.3-68.1-45.1
    c-3,2.4,15,18.4,8.6,30.8c-5,9.7-14.1,15.1-17.7,18.4c-2.3,2.1,13.3,6.6,16,14.6c4,11.6-21.9,23-19.1,28.6c3.1,6,33.8-8.9,77.4-10.6
    c14-0.6,46.7-1.9,52.2,11.6c4.9,12-14.3,29.5-11.4,32.2c2.8,2.6,18.4-16.8,44.3-25.3c21.8-7.1,48.3-5.6,51.9,3.8
    c4,10.1-19.7,26.2-17.2,29.7c2.7,3.7,27-26.8,53.3-23.8c65.2,7.5,89.3,5.5,133.6-7.6c16.4-4.8-3.1,24.4-29.8,51.7
    c-1.4,1.4,94.5-50.8,101.1-59.4c9-11.7,84-21.2,93.3-43.4c5.2-12.6-3.8-23.7-5-24.7c-28.4-24.3-88.3-3.5-100.7-6.4
    C458,95.2,355.9,80.6,358,81.8"/>
</svg>
