<?xml version="1.0" encoding="utf-8"?>
<!-- Generator: Adobe Illustrator 18.1.1, SVG Export Plug-In . SVG Version: 6.00 Build 0)  -->
<svg version="1.1" id="Layer_1" xmlns="http://www.w3.org/2000/svg" xmlns:xlink="http://www.w3.org/1999/xlink" x="0px" y="0px"
	 viewBox="0 0 1000 280.3" enable-background="new 0 0 1000 280.3" xml:space="preserve">
<linearGradient id="SVGID_1_" gradientUnits="userSpaceOnUse" x1="500" y1="280.3185" x2="500" y2="-2.244724e-008">
	<stop  offset="0" style="stop-color:#006837;stop-opacity:0"/>
	<stop  offset="5.572551e-002" style="stop-color:#006837;stop-opacity:0.1413"/>
	<stop  offset="0.3943" style="stop-color:#006837"/>
</linearGradient>
<rect y="0" fill="url(#SVGID_1_)" width="1000" height="280.3"/>
<g>
	<path id="tree_47_" fill="#8C6239" stroke="#000000" stroke-miterlimit="10" d="M218.9,121.6c-8.5-0.8-11.3-0.8-16.6-1.9
		c-3.3-0.8,4.4-24,4.7-25.9c1-5.9-1.7-20.1-8.1-22.5c-4.3-1.6-16.8-13.1-22.7-22.3c-5.8-12.4-13.5-29.8-13.6-30.7
		c-2.4-14.9,17.6-0.9,20.3,3.2c6.8,10.6,15.6,25,17.5,26.8c4.6,4.3,17.3,10.1,15.9,3.6c-1.9-8.7,4.2-32.7,12.2-34.3
		c8.7-1.6,7.2,15.6,7.1,22.2c-0.4,17.4-1.2,15.4,0.5,15.2c29.3-3.7,19.6-31,26.5-38c17.3-2.2,11.8,38.4,9.1,42.5
		c-4.2,6.4-33.6,16.8-31,28.1c1.2,5.8,4.1,32.8,0.4,33.7c-2.8,0.8-5.1,0.8-7.8,0.9c-0.5,0.1-2.3,0.1-5.4,0
		C224.2,122,221.5,121.8,218.9,121.6z"/>
	<ellipse id="leaves3_47_" fill="#22B573" cx="175.1" cy="10.4" rx="30.7" ry="19.8"/>
	<ellipse id="leaves2_47_" fill="#22B573" cx="263.2" cy="13.7" rx="26.5" ry="18.5"/>
	<ellipse id="leaves1_47_" fill="#22B573" cx="225.7" cy="6.6" rx="44.8" ry="30.4"/>
	<path id="tree_46_" fill="#8C6239" stroke="#000000" stroke-miterlimit="10" d="M37,120.8c-8.3-0.8-11-0.7-16.2-2
		c-3.2-0.8,2.6-38.6,2.9-40.5c1-6.1-10.3-7.5-16.5-9.9C3.1,66.9-1.1,65-1.3,55.8c-0.3-13-8.8-44-8.9-44.9c-2.3-15.2,6.8-9.9,9.4-5.7
		c6.7,10.8,14,48.9,15.9,50.8c4.5,4.5,20.8,0.2,19.4-6.4c-1.9-8.9-0.3-51.5,7.6-53.1C50.6-5,47.7,24.3,47.5,31
		c-0.3,17.8,4.7,22.1,6.4,21.9C82.5,49.1,78.1,11,93,9c16.9-2.2-8.9,37.8-11.5,42c-4.1,6.6-30.7,19.9-28.3,31.5c1.3,6,9.2,37,5.5,38
		c-2.8,0.7-5,0.9-7.6,1c-0.6,0-2.2,0.1-5.3,0C42.2,121.4,39.6,121.1,37,120.8z"/>
	<ellipse id="leaves3_46_" fill="#22B573" cx="5.3" cy="16.1" rx="41.1" ry="27.3"/>
	<ellipse id="leaves2_46_" fill="#22B573" cx="79.1" cy="14.5" rx="32.6" ry="21"/>
	<ellipse id="leaves1_46_" fill="#22B573" cx="39.5" cy="3.4" rx="47.4" ry="34"/>
	<path id="tree_45_" fill="#8C6239" stroke="#000000" stroke-miterlimit="10" d="M136.5,137c-8.5-0.8-11.2-0.8-16.6-2
		c-3.3-0.8,8.9-38.2,9.2-40.3c1-6.2-6.7-7-13.1-9.4c-4.2-1.7-12.8-5.3-18.7-14.9C91.7,57.5,80.6,30,80.4,29
		c-2.4-15.6,23-1.8,25.7,2.5c6.8,11.1,6.1,31.9,8.1,33.8c4.6,4.5,21.2,5.6,19.8-1.2c-1.9-9.1-8.6-51.4-0.4-53
		c8.7-1.7,13.9,26.9,13.8,33.8c-0.4,18.2,4.8,22.7,6.6,22.5c29.3-3.9,14.9-49.8,30.1-51.9c17.3-2.3,0.8,45.7-1.8,49.9
		c-4.2,6.7-22.9,14.3-20.5,26.1c1.2,6.1,0.9,44.1-2.9,45.1c-2.8,0.8-5.1,0.9-7.8,1c-0.5,0.1-2.3,0.1-5.4,0
		C141.8,137.5,139.2,137.3,136.5,137z"/>
	<ellipse id="leaves3_45_" fill="#22B573" cx="104.3" cy="13.4" rx="42.1" ry="28"/>
	<ellipse id="leaves2_45_" fill="#22B573" cx="184.6" cy="19.4" rx="33.4" ry="21.5"/>
	<ellipse id="leaves1_45_" fill="#22B573" cx="141.1" cy="10.3" rx="40.5" ry="29.7"/>
</g>
<g>
	<path id="tree_44_" fill="#8C6239" stroke="#000000" stroke-miterlimit="10" d="M738,115.4c-8.5-0.8-11.3-0.8-16.6-1.9
		c-3.3-0.8,4.4-24,4.7-25.9c1-5.9-1.7-20.1-8.1-22.5c-4.3-1.6-16.8-13.1-22.7-22.3c-5.8-12.4-13.5-29.8-13.6-30.7
		c-2.4-14.9,17.6-0.9,20.3,3.2c6.8,10.6,15.6,25,17.5,26.8c4.6,4.3,17.3,10.1,15.9,3.6c-1.9-8.7,4.2-32.7,12.2-34.3
		c8.7-1.6,7.2,15.6,7.1,22.2c-0.4,17.4-1.2,15.4,0.5,15.2c29.3-3.7,19.6-31,26.5-38c17.3-2.2,11.8,38.4,9.1,42.5
		c-4.2,6.4-33.6,16.8-31,28.1c1.2,5.8,4.1,32.8,0.4,33.7c-2.8,0.8-5.1,0.8-7.8,0.9c-0.5,0.1-2.3,0.1-5.4,0
		C743.3,115.8,740.7,115.6,738,115.4z"/>
	<ellipse id="leaves3_44_" fill="#22B573" cx="694.2" cy="4.1" rx="30.7" ry="19.8"/>
	<ellipse id="leaves2_44_" fill="#22B573" cx="782.3" cy="7.5" rx="26.5" ry="18.5"/>
	<ellipse id="leaves1_44_" fill="#22B573" cx="744.8" cy="0.4" rx="44.8" ry="30.4"/>
	<path id="tree_43_" fill="#8C6239" stroke="#000000" stroke-miterlimit="10" d="M556.1,114.6c-8.3-0.8-11-0.7-16.2-2
		c-3.2-0.8,2.6-38.6,2.9-40.5c1-6.1-10.3-7.5-16.5-9.9c-4.1-1.6-8.3-3.5-8.5-12.7c-0.3-13-8.8-44-8.9-44.9
		c-2.3-15.2,6.8-9.9,9.4-5.7c6.7,10.8,14,48.9,15.9,50.8c4.5,4.5,20.8,0.2,19.4-6.4c-1.9-8.9-0.3-51.5,7.6-53.1
		c8.4-1.7,5.5,27.6,5.4,34.3c-0.3,17.8,4.7,22.1,6.4,21.9c28.6-3.8,24.2-41.9,39.1-43.9c16.9-2.2-8.9,37.8-11.5,42
		c-4.1,6.6-30.7,19.9-28.3,31.5c1.3,6,9.2,37,5.5,38c-2.8,0.7-5,0.9-7.6,1c-0.6,0-2.2,0.1-5.3,0
		C561.3,115.1,558.8,114.9,556.1,114.6z"/>
	<ellipse id="leaves3_43_" fill="#22B573" cx="524.4" cy="9.9" rx="41.1" ry="27.3"/>
	<ellipse id="leaves2_43_" fill="#22B573" cx="598.2" cy="8.3" rx="32.6" ry="21"/>
	<ellipse id="leaves1_43_" fill="#22B573" cx="558.7" cy="-2.8" rx="47.4" ry="34"/>
	<path id="tree_42_" fill="#8C6239" stroke="#000000" stroke-miterlimit="10" d="M655.7,130.8c-8.5-0.8-11.2-0.8-16.6-2
		c-3.3-0.8,8.9-38.2,9.2-40.3c1-6.2-6.7-7-13.1-9.4c-4.2-1.7-12.8-5.3-18.7-14.9c-5.8-12.9-16.8-40.5-17-41.4
		c-2.4-15.6,23-1.8,25.7,2.5c6.8,11.1,6.1,31.9,8.1,33.8c4.6,4.5,21.2,5.6,19.8-1.2c-1.9-9.1-8.6-51.4-0.4-53
		c8.7-1.7,13.9,26.9,13.8,33.8c-0.4,18.2,4.8,22.7,6.6,22.5c29.3-3.9,14.9-49.8,30.1-51.9C720.5,7,704,55,701.5,59.3
		c-4.2,6.7-22.9,14.3-20.5,26.1c1.2,6.1,0.9,44.1-2.9,45.1c-2.8,0.8-5.1,0.9-7.8,1c-0.5,0.1-2.3,0.1-5.4,0
		C661,131.2,658.4,131.1,655.7,130.8z"/>
	<ellipse id="leaves3_42_" fill="#22B573" cx="623.5" cy="7.2" rx="42.1" ry="28"/>
	<ellipse id="leaves2_42_" fill="#22B573" cx="703.8" cy="13.1" rx="33.4" ry="21.5"/>
	<ellipse id="leaves1_42_" fill="#22B573" cx="660.3" cy="4.1" rx="40.5" ry="29.7"/>
</g>
<g>
	<path id="tree_41_" fill="#8C6239" stroke="#000000" stroke-miterlimit="10" d="M798.9,128.4c-3.1,0.1-4.9,0.1-5.4,0
		c-2.7-0.1-5-0.2-7.8-0.9c-3.7-0.9-0.9-27.8,0.4-33.7c2.6-11.3-26.8-21.7-31-28.1c-2.7-4.1-8.2-44.7,9.1-42.5
		c6.9,7-2.8,34.3,26.5,38c1.7,0.3,0.9,2.3,0.5-15.2c-0.1-6.6-1.6-23.8,7.1-22.2c8.1,1.6,14.2,25.6,12.2,34.3
		c-1.4,6.4,11.3,0.7,15.9-3.6c1.9-1.9,10.7-16.3,17.5-26.8c2.7-4.1,22.7-18.1,20.3-3.2c-0.2,0.9-7.9,18.4-13.6,30.7
		c-5.8,9.1-18.4,20.7-22.7,22.3c-6.4,2.4-9,16.6-8.1,22.5c0.3,1.9,8,25.1,4.7,25.9c-5.3,1.2-8.1,1.2-16.6,1.9
		C805.3,128.1,802.6,128.2,798.9,128.4z"/>
	<ellipse id="leaves3_41_" fill="#22B573" cx="851.7" cy="16.6" rx="30.7" ry="19.8"/>
	<ellipse id="leaves2_41_" fill="#22B573" cx="763.6" cy="20" rx="26.5" ry="18.5"/>
	<ellipse id="leaves1_41_" fill="#22B573" cx="801.1" cy="12.9" rx="44.8" ry="30.4"/>
	<path id="tree_40_" fill="#8C6239" stroke="#000000" stroke-miterlimit="10" d="M981,127.7c-3,0.1-4.7,0-5.3,0
		c-2.6-0.1-4.8-0.3-7.6-1c-3.7-1,4.2-32,5.5-38c2.5-11.6-24.2-24.9-28.3-31.5c-2.5-4.1-28.3-44.2-11.5-42
		c14.8,2,10.5,40.1,39.1,43.9c1.6,0.2,6.7-4.1,6.4-21.9c-0.1-6.7-3-36,5.4-34.3c7.9,1.6,9.5,44.2,7.6,53.1
		c-1.4,6.6,15,10.8,19.4,6.4c1.9-1.9,9.2-40,15.9-50.8c2.6-4.2,11.8-9.5,9.4,5.7c-0.2,0.9-8.6,31.9-8.9,44.9
		c-0.2,9.2-4.3,11.1-8.5,12.7c-6.2,2.4-17.5,3.8-16.5,9.9c0.3,1.9,6.1,39.7,2.9,40.5c-5.2,1.3-7.9,1.2-16.2,2
		C987.2,127.3,984.6,127.6,981,127.7z"/>
	<ellipse id="leaves3_40_" fill="#22B573" cx="1021.5" cy="22.4" rx="41.1" ry="27.3"/>
	<ellipse id="leaves2_40_" fill="#22B573" cx="947.7" cy="20.8" rx="32.6" ry="21"/>
	<ellipse id="leaves1_40_" fill="#22B573" cx="987.3" cy="9.6" rx="47.4" ry="34"/>
	<path id="tree_39_" fill="#8C6239" stroke="#000000" stroke-miterlimit="10" d="M881.1,143.9c-3.1,0.1-4.9,0.1-5.4,0
		c-2.7-0.1-5-0.2-7.8-1c-3.8-1-4.2-39-2.9-45.1c2.5-11.9-16.3-19.4-20.5-26.1c-2.6-4.2-19-52.2-1.8-49.9c15.2,2,0.8,48,30.1,51.9
		c1.8,0.2,6.9-4.2,6.6-22.5c-0.1-6.9,5.1-35.5,13.8-33.8c8.1,1.7,1.5,43.9-0.4,53c-1.4,6.7,15.2,5.7,19.8,1.2
		c2-1.9,1.3-22.8,8.1-33.8c2.7-4.2,28.1-18.1,25.7-2.5c-0.2,1-11.2,28.5-17,41.4c-5.8,9.6-14.4,13.2-18.7,14.9
		c-6.4,2.4-14.1,3.2-13.1,9.4c0.4,2,12.5,39.5,9.2,40.3c-5.3,1.2-8.1,1.2-16.6,2C887.6,143.5,885,143.7,881.1,143.9z"/>
	<ellipse id="leaves3_39_" fill="#22B573" cx="922.5" cy="19.7" rx="42.1" ry="28"/>
	<ellipse id="leaves2_39_" fill="#22B573" cx="842.2" cy="25.6" rx="33.4" ry="21.5"/>
	<ellipse id="leaves1_39_" fill="#22B573" cx="885.7" cy="16.6" rx="40.5" ry="29.7"/>
</g>
<g>
	<path id="tree_38_" fill="#8C6239" stroke="#000000" stroke-miterlimit="10" d="M308.7,131.9c-3.1,0.1-4.9,0.1-5.4,0
		c-2.7-0.1-5-0.2-7.8-0.9c-3.7-0.9-0.9-27.8,0.4-33.7c2.6-11.3-26.8-21.7-31-28.1c-2.7-4.1-8.2-44.7,9.1-42.5
		c6.9,7-2.8,34.3,26.5,38c1.7,0.3,0.9,2.3,0.5-15.2c-0.1-6.6-1.6-23.8,7.1-22.2c8.1,1.6,14.2,25.6,12.2,34.3
		c-1.4,6.4,11.3,0.7,15.9-3.6c1.9-1.9,10.7-16.3,17.5-26.8c2.7-4.1,22.7-18.1,20.3-3.2c-0.2,0.9-7.9,18.4-13.6,30.7
		c-5.8,9.1-18.4,20.7-22.7,22.3c-6.4,2.4-9,16.6-8.1,22.5c0.3,1.9,8,25.1,4.7,25.9c-5.3,1.2-8.1,1.2-16.6,1.9
		C315.1,131.5,312.4,131.7,308.7,131.9z"/>
	<ellipse id="leaves3_38_" fill="#22B573" cx="361.5" cy="20.1" rx="30.7" ry="19.8"/>
	<ellipse id="leaves2_38_" fill="#22B573" cx="273.5" cy="23.4" rx="26.5" ry="18.5"/>
	<ellipse id="leaves1_38_" fill="#22B573" cx="310.9" cy="16.3" rx="44.8" ry="30.4"/>
	<path id="tree_37_" fill="#8C6239" stroke="#000000" stroke-miterlimit="10" d="M490.8,131.1c-3,0.1-4.7,0-5.3,0
		c-2.6-0.1-4.8-0.3-7.6-1c-3.7-1,4.2-32,5.5-38c2.5-11.6-24.2-24.9-28.3-31.5c-2.6-4.1-28.3-44.2-11.5-42
		c14.8,2,10.5,40.1,39.1,43.9c1.6,0.2,6.7-4.1,6.4-21.9c-0.1-6.7-3-36,5.4-34.3c7.9,1.6,9.5,44.2,7.6,53.1
		c-1.4,6.6,15,10.8,19.4,6.4c1.9-1.9,9.2-40,15.9-50.8c2.6-4.2,11.8-9.5,9.4,5.7c-0.2,0.9-8.6,31.9-8.9,44.9
		c-0.2,9.2-4.3,11.1-8.5,12.7c-6.2,2.4-17.5,3.8-16.5,9.9c0.3,1.9,6.1,39.7,2.9,40.5c-5.2,1.3-7.9,1.2-16.2,2
		C497,130.8,494.5,131.1,490.8,131.1z"/>
	<ellipse id="leaves3_37_" fill="#22B573" cx="531.4" cy="25.8" rx="41.1" ry="27.3"/>
	<ellipse id="leaves2_37_" fill="#22B573" cx="457.5" cy="24.2" rx="32.6" ry="21"/>
	<ellipse id="leaves1_37_" fill="#22B573" cx="497.1" cy="13.1" rx="47.4" ry="34"/>
	<path id="tree_36_" fill="#8C6239" stroke="#000000" stroke-miterlimit="10" d="M390.9,147.3c-3.1,0.1-4.9,0.1-5.4,0
		c-2.7-0.1-5-0.2-7.8-1c-3.8-1-4.2-39-2.9-45.1c2.5-11.9-16.3-19.4-20.5-26.1c-2.6-4.2-19-52.2-1.8-49.9c15.2,2,0.8,48,30.1,51.9
		c1.8,0.2,6.9-4.2,6.6-22.5c-0.1-6.9,5.1-35.5,13.8-33.8c8.1,1.7,1.5,43.9-0.4,53c-1.4,6.7,15.2,5.7,19.8,1.2
		c2-1.9,1.3-22.8,8.1-33.8c2.7-4.2,28.1-18.1,25.7-2.5c-0.2,1-11.2,28.5-17,41.4c-5.8,9.6-14.4,13.2-18.7,14.9
		c-6.4,2.4-14.1,3.2-13.1,9.4c0.4,2,12.5,39.5,9.2,40.3c-5.3,1.2-8.1,1.2-16.6,2C397.4,147,394.8,147.2,390.9,147.3z"/>
	<ellipse id="leaves3_36_" fill="#22B573" cx="432.3" cy="23.1" rx="42.1" ry="28"/>
	<ellipse id="leaves2_36_" fill="#22B573" cx="352" cy="29.1" rx="33.4" ry="21.5"/>
	<ellipse id="leaves1_36_" fill="#22B573" cx="395.5" cy="20" rx="40.5" ry="29.7"/>
</g>
<g>
	<path id="tree_35_" fill="#8C6239" stroke="#000000" stroke-miterlimit="10" d="M798.3,155.3c-3.1,0.1-4.9,0.1-5.4,0
		c-2.7-0.1-5-0.2-7.8-0.9c-3.7-0.9-0.9-27.8,0.4-33.7c2.6-11.3-26.8-21.7-31-28.1c-2.7-4.1-8.2-44.7,9.1-42.5
		c6.9,7-2.8,34.3,26.5,38c1.7,0.3,0.9,2.3,0.5-15.2c-0.1-6.6-1.6-23.8,7.1-22.2c8.1,1.6,14.2,25.6,12.2,34.3
		c-1.4,6.4,11.3,0.7,15.9-3.6c1.9-1.9,10.7-16.3,17.5-26.8c2.7-4.1,22.7-18.1,20.3-3.2c-0.2,0.9-7.9,18.4-13.6,30.7
		c-5.8,9.1-18.4,20.7-22.7,22.3c-6.4,2.4-9,16.6-8.1,22.5c0.3,1.9,8,25.1,4.7,25.9c-5.3,1.2-8.1,1.2-16.6,1.9
		C804.6,155,802,155.1,798.3,155.3z"/>
	<ellipse id="leaves3_35_" fill="#22B573" cx="851.1" cy="43.5" rx="30.7" ry="19.8"/>
	<ellipse id="leaves2_35_" fill="#22B573" cx="763" cy="46.9" rx="26.5" ry="18.5"/>
	<ellipse id="leaves1_35_" fill="#22B573" cx="800.5" cy="39.8" rx="44.8" ry="30.4"/>
	<path id="tree_34_" fill="#8C6239" stroke="#000000" stroke-miterlimit="10" d="M980.3,154.6c-3,0.1-4.7,0-5.3,0
		c-2.6-0.1-4.8-0.3-7.6-1c-3.7-1,4.2-32,5.5-38c2.5-11.6-24.2-24.9-28.3-31.5c-2.6-4.1-28.3-44.2-11.5-42
		c14.8,2,10.5,40.1,39.1,43.9c1.6,0.2,6.7-4.1,6.4-21.9c-0.1-6.7-3-36,5.4-34.3c7.9,1.6,9.5,44.2,7.6,53.1
		c-1.4,6.6,15,10.8,19.4,6.4c1.9-1.9,9.2-40,15.9-50.8c2.6-4.2,11.8-9.5,9.4,5.7c-0.2,0.9-8.6,31.9-8.9,44.9
		c-0.2,9.2-4.3,11.1-8.5,12.7c-6.2,2.4-17.5,3.8-16.5,9.9c0.3,1.9,6.1,39.7,2.9,40.5c-5.2,1.3-7.9,1.2-16.2,2
		C986.6,154.2,984,154.5,980.3,154.6z"/>
	<ellipse id="leaves3_34_" fill="#22B573" cx="1020.9" cy="49.2" rx="41.1" ry="27.3"/>
	<ellipse id="leaves2_34_" fill="#22B573" cx="947.1" cy="47.6" rx="32.6" ry="21"/>
	<ellipse id="leaves1_34_" fill="#22B573" cx="986.6" cy="36.5" rx="47.4" ry="34"/>
	<path id="tree_33_" fill="#8C6239" stroke="#000000" stroke-miterlimit="10" d="M880.4,170.8c-3.1,0.1-4.9,0.1-5.4,0
		c-2.7-0.1-5-0.2-7.8-1c-3.8-1-4.2-39-2.9-45.1c2.5-11.9-16.3-19.4-20.5-26.1c-2.6-4.2-19-52.2-1.8-49.9c15.2,2,0.8,48,30.1,51.9
		c1.8,0.2,6.9-4.2,6.6-22.5c-0.1-6.9,5.1-35.5,13.8-33.8c8.1,1.7,1.5,43.9-0.4,53c-1.4,6.7,15.2,5.7,19.8,1.2
		c2-1.9,1.3-22.8,8.1-33.8c2.7-4.2,28.1-18.1,25.7-2.5c-0.2,1-11.2,28.5-17,41.4c-5.8,9.6-14.4,13.2-18.7,14.9
		c-6.4,2.4-14.1,3.2-13.1,9.4c0.4,2,12.5,39.5,9.2,40.3c-5.3,1.2-8.1,1.2-16.6,2C887,170.4,884.3,170.6,880.4,170.8z"/>
	<ellipse id="leaves3_33_" fill="#22B573" cx="921.9" cy="46.5" rx="42.1" ry="28"/>
	<ellipse id="leaves2_33_" fill="#22B573" cx="841.6" cy="52.5" rx="33.4" ry="21.5"/>
	<ellipse id="leaves1_33_" fill="#22B573" cx="885" cy="43.4" rx="40.5" ry="29.7"/>
</g>
<g>
	<path id="tree_32_" fill="#8C6239" stroke="#000000" stroke-miterlimit="10" d="M279.1,149.1c-3.1,0.1-4.9,0.1-5.4,0
		c-2.7-0.1-5-0.2-7.8-0.9c-3.7-0.9-0.9-27.8,0.4-33.7c2.6-11.3-26.8-21.7-31-28.1c-2.7-4.1-8.2-44.7,9.1-42.5
		c6.9,7-2.8,34.3,26.5,38c1.7,0.3,0.9,2.3,0.5-15.2c-0.1-6.6-1.6-23.8,7.1-22.2c8.1,1.6,14.2,25.6,12.2,34.3
		c-1.4,6.4,11.3,0.7,15.9-3.6c1.9-1.9,10.7-16.3,17.5-26.8c2.7-4.1,22.7-18.1,20.3-3.2c-0.2,0.9-7.9,18.4-13.6,30.7
		c-5.8,9.1-18.4,20.7-22.7,22.3c-6.4,2.4-9,16.6-8.1,22.5c0.3,1.9,8,25.1,4.7,25.9c-5.3,1.2-8.1,1.2-16.6,1.9
		C285.5,148.7,282.8,148.9,279.1,149.1z"/>
	<ellipse id="leaves3_32_" fill="#22B573" cx="331.9" cy="37.3" rx="30.7" ry="19.8"/>
	<ellipse id="leaves2_32_" fill="#22B573" cx="243.8" cy="40.6" rx="26.5" ry="18.5"/>
	<ellipse id="leaves1_32_" fill="#22B573" cx="281.3" cy="33.5" rx="44.8" ry="30.4"/>
	<path id="tree_31_" fill="#8C6239" stroke="#000000" stroke-miterlimit="10" d="M461.2,148.3c-3,0.1-4.7,0-5.3,0
		c-2.6-0.1-4.8-0.3-7.6-1c-3.7-1,4.2-32,5.5-38c2.5-11.6-24.2-24.9-28.3-31.5c-2.6-4.1-28.3-44.2-11.5-42
		c14.8,2,10.5,40.1,39.1,43.9c1.6,0.2,6.7-4.1,6.4-21.9c-0.1-6.7-3-36,5.4-34.3c7.9,1.6,9.5,44.2,7.6,53.1
		c-1.4,6.6,15,10.8,19.4,6.4c1.9-1.9,9.2-40,15.9-50.8c2.6-4.2,11.8-9.5,9.4,5.7c-0.2,0.9-8.6,31.9-8.9,44.9
		c-0.2,9.2-4.3,11.1-8.5,12.7c-6.2,2.4-17.5,3.8-16.5,9.9c0.3,1.9,6.1,39.7,2.9,40.5c-5.2,1.3-7.9,1.2-16.2,2
		C467.4,148,464.8,148.3,461.2,148.3z"/>
	<ellipse id="leaves3_31_" fill="#22B573" cx="501.8" cy="43" rx="41.1" ry="27.3"/>
	<ellipse id="leaves2_31_" fill="#22B573" cx="427.9" cy="41.4" rx="32.6" ry="21"/>
	<ellipse id="leaves1_31_" fill="#22B573" cx="467.5" cy="30.3" rx="47.4" ry="34"/>
	<path id="tree_30_" fill="#8C6239" stroke="#000000" stroke-miterlimit="10" d="M361.3,164.5c-3.1,0.1-4.9,0.1-5.4,0
		c-2.7-0.1-5-0.2-7.8-1c-3.8-1-4.2-39-2.9-45.1c2.5-11.9-16.3-19.4-20.5-26.1c-2.6-4.2-19-52.2-1.8-49.9c15.2,2,0.8,48,30.1,51.9
		c1.8,0.2,6.9-4.2,6.6-22.5c-0.1-6.9,5.1-35.5,13.8-33.8c8.1,1.7,1.5,43.9-0.4,53c-1.4,6.7,15.2,5.7,19.8,1.2
		c2-1.9,1.3-22.8,8.1-33.8c2.7-4.2,28.1-18.1,25.7-2.5c-0.2,1-11.2,28.5-17,41.4c-5.8,9.6-14.4,13.2-18.7,14.9
		c-6.4,2.4-14.1,3.2-13.1,9.4c0.4,2,12.5,39.5,9.2,40.3c-5.3,1.2-8.1,1.2-16.6,2C367.8,164.2,365.2,164.4,361.3,164.5z"/>
	<ellipse id="leaves3_30_" fill="#22B573" cx="402.7" cy="40.3" rx="42.1" ry="28"/>
	<ellipse id="leaves2_30_" fill="#22B573" cx="322.4" cy="46.2" rx="33.4" ry="21.5"/>
	<ellipse id="leaves1_30_" fill="#22B573" cx="365.9" cy="37.2" rx="40.5" ry="29.7"/>
</g>
<g>
	<path id="tree_29_" fill="#8C6239" stroke="#000000" stroke-miterlimit="10" d="M218.2,160.9c-8.5-0.8-11.3-0.8-16.6-1.9
		c-3.3-0.8,4.4-24,4.7-25.9c1-5.9-1.7-20.1-8.1-22.5c-4.3-1.6-16.8-13.1-22.7-22.3C169.8,76,162.1,58.5,162,57.6
		c-2.4-14.9,17.6-0.9,20.3,3.2c6.8,10.6,15.6,25,17.5,26.8c4.6,4.3,17.3,10.1,15.9,3.6c-1.9-8.7,4.2-32.7,12.2-34.3
		c8.7-1.6,7.2,15.6,7.1,22.2c-0.4,17.4-1.2,15.4,0.5,15.2c29.3-3.7,19.6-31,26.5-38c17.3-2.2,11.8,38.4,9.1,42.5
		c-4.2,6.4-33.6,16.8-31,28.1c1.2,5.8,4.1,32.8,0.4,33.7c-2.8,0.8-5.1,0.8-7.8,0.9c-0.5,0.1-2.3,0.1-5.4,0
		C223.5,161.4,220.9,161.2,218.2,160.9z"/>
	<ellipse id="leaves3_29_" fill="#22B573" cx="174.5" cy="49.7" rx="30.7" ry="19.8"/>
	<ellipse id="leaves2_29_" fill="#22B573" cx="262.5" cy="53.1" rx="26.5" ry="18.5"/>
	<ellipse id="leaves1_29_" fill="#22B573" cx="225" cy="46" rx="44.8" ry="30.4"/>
	<path id="tree_28_" fill="#8C6239" stroke="#000000" stroke-miterlimit="10" d="M36.3,160.2c-8.3-0.8-11-0.7-16.2-2
		c-3.2-0.8,2.6-38.6,2.9-40.5c1-6.1-10.3-7.5-16.5-9.9c-4.1-1.6-8.3-3.5-8.5-12.7c-0.3-13-8.8-44-8.9-44.9
		c-2.3-15.2,6.8-9.9,9.4-5.7c6.7,10.8,14,48.9,15.9,50.8c4.5,4.5,20.8,0.2,19.4-6.4C32,80.2,33.6,37.6,41.5,36
		c8.4-1.7,5.5,27.6,5.4,34.3c-0.3,17.8,4.7,22.1,6.4,21.9c28.6-3.8,24.2-41.9,39.1-43.9c16.9-2.2-8.9,37.8-11.5,42
		c-4.1,6.6-30.7,19.9-28.3,31.5c1.3,6,9.2,37,5.5,38c-2.8,0.7-5,0.9-7.6,1c-0.6,0-2.2,0.1-5.3,0C41.5,160.7,39,160.5,36.3,160.2z"/>
	<ellipse id="leaves3_28_" fill="#22B573" cx="4.6" cy="55.5" rx="41.1" ry="27.3"/>
	<ellipse id="leaves2_28_" fill="#22B573" cx="78.4" cy="53.9" rx="32.6" ry="21"/>
	<ellipse id="leaves1_28_" fill="#22B573" cx="38.9" cy="42.8" rx="47.4" ry="34"/>
	<path id="tree_27_" fill="#8C6239" stroke="#000000" stroke-miterlimit="10" d="M135.9,176.4c-8.5-0.8-11.2-0.8-16.6-2
		c-3.3-0.8,8.9-38.2,9.2-40.3c1-6.2-6.7-7-13.1-9.4c-4.2-1.7-12.8-5.3-18.7-14.9c-5.8-12.9-16.8-40.5-17-41.4
		c-2.4-15.6,23-1.8,25.7,2.5c6.8,11.1,6.1,31.9,8.1,33.8c4.6,4.5,21.2,5.6,19.8-1.2c-1.9-9.1-8.6-51.4-0.4-53
		c8.7-1.7,13.9,26.9,13.8,33.8c-0.4,18.2,4.8,22.7,6.6,22.5c29.3-3.9,14.9-49.8,30.1-51.9c17.3-2.3,0.8,45.7-1.8,49.9
		c-4.2,6.7-22.9,14.3-20.5,26.1c1.2,6.1,0.9,44.1-2.9,45.1c-2.8,0.8-5.1,0.9-7.8,1c-0.5,0.1-2.3,0.1-5.4,0
		C141.2,176.8,138.6,176.6,135.9,176.4z"/>
	<ellipse id="leaves3_27_" fill="#22B573" cx="103.7" cy="52.8" rx="42.1" ry="28"/>
	<ellipse id="leaves2_27_" fill="#22B573" cx="184" cy="58.7" rx="33.4" ry="21.5"/>
	<ellipse id="leaves1_27_" fill="#22B573" cx="140.5" cy="49.7" rx="40.5" ry="29.7"/>
</g>
<g>
	<path id="tree_26_" fill="#8C6239" stroke="#000000" stroke-miterlimit="10" d="M708.4,164.4c-8.5-0.8-11.3-0.8-16.6-1.9
		c-3.3-0.8,4.4-24,4.7-25.9c1-5.9-1.7-20.1-8.1-22.5c-4.3-1.6-16.8-13.1-22.7-22.3C660,79.4,652.3,62,652.1,61
		c-2.4-14.9,17.6-0.9,20.3,3.2c6.8,10.6,15.6,25,17.5,26.8c4.6,4.3,17.3,10.1,15.9,3.6c-1.9-8.7,4.2-32.7,12.2-34.3
		c8.7-1.6,7.2,15.6,7.1,22.2c-0.4,17.4-1.2,15.4,0.5,15.2c29.3-3.7,19.6-31,26.5-38c17.3-2.2,11.8,38.4,9.1,42.5
		c-4.2,6.4-33.6,16.8-31,28.1c1.2,5.8,4.1,32.8,0.4,33.7c-2.8,0.8-5.1,0.8-7.8,0.9c-0.5,0.1-2.3,0.1-5.4,0
		C713.7,164.8,711.1,164.7,708.4,164.4z"/>
	<ellipse id="leaves3_26_" fill="#22B573" cx="664.6" cy="53.2" rx="30.7" ry="19.8"/>
	<ellipse id="leaves2_26_" fill="#22B573" cx="752.7" cy="56.6" rx="26.5" ry="18.5"/>
	<ellipse id="leaves1_26_" fill="#22B573" cx="715.2" cy="49.5" rx="44.8" ry="30.4"/>
	<path id="tree_25_" fill="#8C6239" stroke="#000000" stroke-miterlimit="10" d="M526.5,163.7c-8.3-0.8-11-0.7-16.2-2
		c-3.2-0.8,2.6-38.6,2.9-40.5c1-6.1-10.3-7.5-16.5-9.9c-4.1-1.6-8.3-3.5-8.5-12.7c-0.3-13-8.8-44-8.9-44.9
		c-2.3-15.2,6.8-9.9,9.4-5.7c6.7,10.8,14,48.9,15.9,50.8c4.5,4.5,20.8,0.2,19.4-6.4c-1.9-8.9-0.3-51.5,7.6-53.1
		c8.4-1.7,5.5,27.6,5.4,34.3c-0.3,17.8,4.7,22.1,6.4,21.9c28.6-3.8,24.2-41.9,39.1-43.9c16.9-2.2-8.9,37.8-11.5,42
		c-4.1,6.6-30.7,19.9-28.3,31.5c1.3,6,9.2,37,5.5,38c-2.8,0.7-5,0.9-7.6,1c-0.6,0-2.2,0.1-5.3,0
		C531.7,164.2,529.2,163.9,526.5,163.7z"/>
	<ellipse id="leaves3_25_" fill="#22B573" cx="494.8" cy="58.9" rx="41.1" ry="27.3"/>
	<ellipse id="leaves2_25_" fill="#22B573" cx="568.6" cy="57.3" rx="32.6" ry="21"/>
	<ellipse id="leaves1_25_" fill="#22B573" cx="529.1" cy="46.2" rx="47.4" ry="34"/>
	<path id="tree_24_" fill="#8C6239" stroke="#000000" stroke-miterlimit="10" d="M626.1,179.8c-8.5-0.8-11.2-0.8-16.6-2
		c-3.3-0.8,8.9-38.2,9.2-40.3c1-6.2-6.7-7-13.1-9.4c-4.2-1.7-12.8-5.3-18.7-14.9c-5.8-12.9-16.8-40.5-17-41.4
		c-2.4-15.6,23-1.8,25.7,2.5c6.8,11.1,6.1,31.9,8.1,33.8c4.6,4.5,21.2,5.6,19.8-1.2c-1.9-9.1-8.6-51.4-0.4-53
		c8.7-1.7,13.9,26.9,13.8,33.8c-0.4,18.2,4.8,22.7,6.6,22.5c29.3-3.9,14.9-49.8,30.1-51.9c17.3-2.3,0.8,45.7-1.8,49.9
		c-4.2,6.7-22.9,14.3-20.5,26.1c1.2,6.1,0.9,44.1-2.9,45.1c-2.8,0.8-5.1,0.9-7.8,1c-0.5,0.1-2.3,0.1-5.4,0
		C631.4,180.3,628.7,180.1,626.1,179.8z"/>
	<ellipse id="leaves3_24_" fill="#22B573" cx="593.9" cy="56.2" rx="42.1" ry="28"/>
	<ellipse id="leaves2_24_" fill="#22B573" cx="674.2" cy="62.2" rx="33.4" ry="21.5"/>
	<ellipse id="leaves1_24_" fill="#22B573" cx="630.7" cy="53.1" rx="40.5" ry="29.7"/>
</g>
<g>
	<path id="tree_23_" fill="#8C6239" stroke="#000000" stroke-miterlimit="10" d="M194,205.7c-8.5-0.8-11.3-0.8-16.6-1.9
		c-3.3-0.8,4.4-24,4.7-25.9c1-5.9-1.7-20.1-8.1-22.5c-4.3-1.6-16.8-13.1-22.7-22.3c-5.8-12.4-13.5-29.8-13.6-30.7
		c-2.4-14.9,17.6-0.9,20.3,3.2c6.8,10.6,15.6,25,17.5,26.8c4.6,4.3,17.3,10.1,15.9,3.6c-1.9-8.7,4.2-32.7,12.2-34.3
		c8.7-1.6,7.2,15.6,7.1,22.2c-0.4,17.4-1.2,15.4,0.5,15.2c29.3-3.7,19.6-31,26.5-38c17.3-2.2,11.8,38.4,9.1,42.5
		c-4.2,6.4-33.6,16.8-31,28.1c1.2,5.8,4.1,32.8,0.4,33.7c-2.8,0.8-5.1,0.8-7.8,0.9c-0.5,0.1-2.3,0.1-5.4,0
		C199.3,206.1,196.7,205.9,194,205.7z"/>
	<ellipse id="leaves3_23_" fill="#22B573" cx="150.2" cy="94.4" rx="30.7" ry="19.8"/>
	<ellipse id="leaves2_23_" fill="#22B573" cx="238.3" cy="97.8" rx="26.5" ry="18.5"/>
	<ellipse id="leaves1_23_" fill="#22B573" cx="200.8" cy="90.7" rx="44.8" ry="30.4"/>
	<path id="tree_22_" fill="#8C6239" stroke="#000000" stroke-miterlimit="10" d="M12.1,204.9c-8.3-0.8-11-0.7-16.2-2
		c-3.2-0.8,2.6-38.6,2.9-40.5c1-6.1-10.3-7.5-16.5-9.9c-4.1-1.6-8.3-3.5-8.5-12.7c-0.3-13-8.8-44-8.9-44.9
		c-2.3-15.2,6.8-9.9,9.4-5.7c6.7,10.8,14,48.9,15.9,50.8c4.5,4.5,20.8,0.2,19.4-6.4c-1.9-8.9-0.3-51.5,7.6-53.1
		c8.4-1.7,5.5,27.6,5.4,34.3c-0.3,17.8,4.7,22.1,6.4,21.9c28.6-3.8,24.2-41.9,39.1-43.9c16.9-2.2-8.9,37.8-11.5,42
		c-4.1,6.6-30.7,19.9-28.3,31.5c1.3,6,9.2,37,5.5,38c-2.8,0.7-5,0.9-7.6,1c-0.6,0-2.2,0.1-5.3,0C17.3,205.4,14.8,205.2,12.1,204.9z"
		/>
	<ellipse id="leaves3_22_" fill="#22B573" cx="-19.6" cy="100.2" rx="41.1" ry="27.3"/>
	<ellipse id="leaves2_22_" fill="#22B573" cx="54.2" cy="98.6" rx="32.6" ry="21"/>
	<ellipse id="leaves1_22_" fill="#22B573" cx="14.7" cy="87.5" rx="47.4" ry="34"/>
	<path id="tree_21_" fill="#8C6239" stroke="#000000" stroke-miterlimit="10" d="M111.7,221.1c-8.5-0.8-11.2-0.8-16.6-2
		c-3.3-0.8,8.9-38.2,9.2-40.3c1-6.2-6.7-7-13.1-9.4c-4.2-1.7-12.8-5.3-18.7-14.9c-5.8-12.9-16.8-40.5-17-41.4
		c-2.4-15.6,23-1.8,25.7,2.5c6.8,11.1,6.1,31.9,8.1,33.8c4.6,4.5,21.2,5.6,19.8-1.2c-1.9-9.1-8.6-51.4-0.4-53
		c8.7-1.7,13.9,26.9,13.8,33.8c-0.4,18.2,4.8,22.7,6.6,22.5c29.3-3.9,14.9-49.8,30.1-51.9c17.3-2.3,0.8,45.7-1.8,49.9
		c-4.2,6.7-22.9,14.3-20.5,26.1c1.2,6.1,0.9,44.1-2.9,45.1c-2.8,0.8-5.1,0.9-7.8,1c-0.5,0.1-2.3,0.1-5.4,0
		C117,221.5,114.4,221.4,111.7,221.1z"/>
	<ellipse id="leaves3_21_" fill="#22B573" cx="79.5" cy="97.5" rx="42.1" ry="28"/>
	<ellipse id="leaves2_21_" fill="#22B573" cx="159.8" cy="103.4" rx="33.4" ry="21.5"/>
	<ellipse id="leaves1_21_" fill="#22B573" cx="116.3" cy="94.4" rx="40.5" ry="29.7"/>
</g>
<g>
	<path id="tree_20_" fill="#8C6239" stroke="#000000" stroke-miterlimit="10" d="M713.2,199.4c-8.5-0.8-11.3-0.8-16.6-1.9
		c-3.3-0.8,4.4-24,4.7-25.9c1-5.9-1.7-20.1-8.1-22.5c-4.3-1.6-16.8-13.1-22.7-22.3c-5.8-12.4-13.5-29.8-13.6-30.7
		c-2.4-14.9,17.6-0.9,20.3,3.2c6.8,10.6,15.6,25,17.5,26.8c4.6,4.3,17.3,10.1,15.9,3.6c-1.9-8.7,4.2-32.7,12.2-34.3
		c8.7-1.6,7.2,15.6,7.1,22.2c-0.4,17.4-1.2,15.4,0.5,15.2c29.3-3.7,19.6-31,26.5-38c17.3-2.2,11.8,38.4,9.1,42.5
		c-4.2,6.4-33.6,16.8-31,28.1c1.2,5.8,4.1,32.8,0.4,33.7c-2.8,0.8-5.1,0.8-7.8,0.9c-0.5,0.1-2.3,0.1-5.4,0
		C718.5,199.9,715.8,199.7,713.2,199.4z"/>
	<ellipse id="leaves3_20_" fill="#22B573" cx="669.4" cy="88.2" rx="30.7" ry="19.8"/>
	<ellipse id="leaves2_20_" fill="#22B573" cx="757.5" cy="91.6" rx="26.5" ry="18.5"/>
	<ellipse id="leaves1_20_" fill="#22B573" cx="720" cy="84.5" rx="44.8" ry="30.4"/>
	<path id="tree_19_" fill="#8C6239" stroke="#000000" stroke-miterlimit="10" d="M531.3,198.7c-8.3-0.8-11-0.7-16.2-2
		c-3.2-0.8,2.6-38.6,2.9-40.5c1-6.1-10.3-7.5-16.5-9.9c-4.1-1.6-8.3-3.5-8.5-12.7c-0.3-13-8.8-44-8.9-44.9
		c-2.3-15.2,6.8-9.9,9.4-5.7c6.7,10.8,14,48.9,15.9,50.8c4.5,4.5,20.8,0.2,19.4-6.4c-1.9-8.9-0.3-51.5,7.6-53.1
		c8.4-1.7,5.5,27.6,5.4,34.3c-0.3,17.8,4.7,22.1,6.4,21.9c28.6-3.8,24.2-41.9,39.1-43.9c16.9-2.2-8.9,37.8-11.5,42
		c-4.1,6.6-30.7,19.9-28.3,31.5c1.3,6,9.2,37,5.5,38c-2.8,0.7-5,0.9-7.6,1c-0.6,0-2.2,0.1-5.3,0C536.5,199.2,533.9,199,531.3,198.7z
		"/>
	<ellipse id="leaves3_19_" fill="#22B573" cx="499.6" cy="94" rx="41.1" ry="27.3"/>
	<ellipse id="leaves2_19_" fill="#22B573" cx="573.4" cy="92.4" rx="32.6" ry="21"/>
	<ellipse id="leaves1_19_" fill="#22B573" cx="533.8" cy="81.3" rx="47.4" ry="34"/>
	<path id="tree_18_" fill="#8C6239" stroke="#000000" stroke-miterlimit="10" d="M630.9,214.9c-8.5-0.8-11.2-0.8-16.6-2
		c-3.3-0.8,8.9-38.2,9.2-40.3c1-6.2-6.7-7-13.1-9.4c-4.2-1.7-12.8-5.3-18.7-14.9c-5.8-12.9-16.8-40.5-17-41.4
		c-2.4-15.6,23-1.8,25.7,2.5c6.8,11.1,6.1,31.9,8.1,33.8c4.6,4.5,21.2,5.6,19.8-1.2c-1.9-9.1-8.6-51.4-0.4-53
		c8.7-1.7,13.9,26.9,13.8,33.8c-0.4,18.2,4.8,22.7,6.6,22.5c29.3-3.9,14.9-49.8,30.1-51.9c17.3-2.3,0.8,45.7-1.8,49.9
		c-4.2,6.7-22.9,14.3-20.5,26.1c1.2,6.1,0.9,44.1-2.9,45.1c-2.8,0.8-5.1,0.9-7.8,1c-0.5,0.1-2.3,0.1-5.4,0
		C636.2,215.3,633.5,215.1,630.9,214.9z"/>
	<ellipse id="leaves3_18_" fill="#22B573" cx="598.6" cy="91.3" rx="42.1" ry="28"/>
	<ellipse id="leaves2_18_" fill="#22B573" cx="678.9" cy="97.2" rx="33.4" ry="21.5"/>
	<ellipse id="leaves1_18_" fill="#22B573" cx="635.5" cy="88.2" rx="40.5" ry="29.7"/>
</g>
<g>
	<path id="tree_17_" fill="#8C6239" stroke="#000000" stroke-miterlimit="10" d="M774.1,212.5c-3.1,0.1-4.9,0.1-5.4,0
		c-2.7-0.1-5-0.2-7.8-0.9c-3.7-0.9-0.9-27.8,0.4-33.7c2.6-11.3-26.8-21.7-31-28.1c-2.7-4.1-8.2-44.7,9.1-42.5
		c6.9,7-2.8,34.3,26.5,38c1.7,0.3,0.9,2.3,0.5-15.2c-0.1-6.6-1.6-23.8,7.1-22.2c8.1,1.6,14.2,25.6,12.2,34.3
		c-1.4,6.4,11.3,0.7,15.9-3.6c1.9-1.9,10.7-16.3,17.5-26.8c2.7-4.1,22.7-18.1,20.3-3.2c-0.2,0.9-7.9,18.4-13.6,30.7
		c-5.8,9.1-18.4,20.7-22.7,22.3c-6.4,2.4-9,16.6-8.1,22.5c0.3,1.9,8,25.1,4.7,25.9c-5.3,1.2-8.1,1.2-16.6,1.9
		C780.4,212.1,777.8,212.3,774.1,212.5z"/>
	<ellipse id="leaves3_17_" fill="#22B573" cx="826.9" cy="100.7" rx="30.7" ry="19.8"/>
	<ellipse id="leaves2_17_" fill="#22B573" cx="738.8" cy="104.1" rx="26.5" ry="18.5"/>
	<ellipse id="leaves1_17_" fill="#22B573" cx="776.3" cy="96.9" rx="44.8" ry="30.4"/>
	<path id="tree_16_" fill="#8C6239" stroke="#000000" stroke-miterlimit="10" d="M956.1,211.8c-3,0.1-4.7,0-5.3,0
		c-2.6-0.1-4.8-0.3-7.6-1c-3.7-1,4.2-32,5.5-38c2.5-11.6-24.2-24.9-28.3-31.5c-2.6-4.1-28.3-44.2-11.5-42
		c14.8,2,10.5,40.1,39.1,43.9c1.6,0.2,6.7-4.1,6.4-21.9c-0.1-6.7-3-36,5.4-34.3c7.9,1.6,9.5,44.2,7.6,53.1
		c-1.4,6.6,15,10.8,19.4,6.4c1.9-1.9,9.2-40,15.9-50.8c2.6-4.2,11.8-9.5,9.4,5.7c-0.2,0.9-8.6,31.9-8.9,44.9
		c-0.2,9.2-4.3,11.1-8.5,12.7c-6.2,2.4-17.5,3.8-16.5,9.9c0.3,1.9,6.1,39.7,2.9,40.5c-5.2,1.3-7.9,1.2-16.2,2
		C962.3,211.4,959.8,211.7,956.1,211.8z"/>
	<ellipse id="leaves3_16_" fill="#22B573" cx="996.7" cy="106.4" rx="41.1" ry="27.3"/>
	<ellipse id="leaves2_16_" fill="#22B573" cx="922.9" cy="104.8" rx="32.6" ry="21"/>
	<ellipse id="leaves1_16_" fill="#22B573" cx="962.4" cy="93.7" rx="47.4" ry="34"/>
	<path id="tree_15_" fill="#8C6239" stroke="#000000" stroke-miterlimit="10" d="M856.2,228c-3.1,0.1-4.9,0.1-5.4,0
		c-2.7-0.1-5-0.2-7.8-1c-3.8-1-4.2-39-2.9-45.1c2.5-11.9-16.3-19.4-20.5-26.1c-2.6-4.2-19-52.2-1.8-49.9c15.2,2,0.8,48,30.1,51.9
		c1.8,0.2,6.9-4.2,6.6-22.5c-0.1-6.9,5.1-35.5,13.8-33.8c8.1,1.7,1.5,43.9-0.4,53c-1.4,6.7,15.2,5.7,19.8,1.2
		c2-1.9,1.3-22.8,8.1-33.8c2.7-4.2,28.1-18.1,25.7-2.5c-0.2,1-11.2,28.5-17,41.4c-5.8,9.6-14.4,13.2-18.7,14.9
		c-6.4,2.4-14.1,3.2-13.1,9.4c0.4,2,12.5,39.5,9.2,40.3c-5.3,1.2-8.1,1.2-16.6,2C862.8,227.6,860.1,227.8,856.2,228z"/>
	<ellipse id="leaves3_15_" fill="#22B573" cx="897.7" cy="103.7" rx="42.1" ry="28"/>
	<ellipse id="leaves2_15_" fill="#22B573" cx="817.4" cy="109.7" rx="33.4" ry="21.5"/>
	<ellipse id="leaves1_15_" fill="#22B573" cx="860.8" cy="100.6" rx="40.5" ry="29.7"/>
</g>
<g>
	<path id="tree_14_" fill="#8C6239" stroke="#000000" stroke-miterlimit="10" d="M283.9,215.9c-3.1,0.1-4.9,0.1-5.4,0
		c-2.7-0.1-5-0.2-7.8-0.9c-3.7-0.9-0.9-27.8,0.4-33.7c2.6-11.3-26.8-21.7-31-28.1c-2.7-4.1-8.2-44.7,9.1-42.5
		c6.9,7-2.8,34.3,26.5,38c1.7,0.3,0.9,2.3,0.5-15.2c-0.1-6.6-1.6-23.8,7.1-22.2c8.1,1.6,14.2,25.6,12.2,34.3
		c-1.4,6.4,11.3,0.7,15.9-3.6c1.9-1.9,10.7-16.3,17.5-26.8c2.7-4.1,22.7-18.1,20.3-3.2c-0.2,0.9-7.9,18.4-13.6,30.7
		c-5.8,9.1-18.4,20.7-22.7,22.3c-6.4,2.4-9,16.6-8.1,22.5c0.3,1.9,8,25.1,4.7,25.9c-5.3,1.2-8.1,1.2-16.6,1.9
		C290.3,215.6,287.6,215.8,283.9,215.9z"/>
	<ellipse id="leaves3_14_" fill="#22B573" cx="336.7" cy="104.1" rx="30.7" ry="19.8"/>
	<ellipse id="leaves2_14_" fill="#22B573" cx="248.6" cy="107.5" rx="26.5" ry="18.5"/>
	<ellipse id="leaves1_14_" fill="#22B573" cx="286.1" cy="100.4" rx="44.8" ry="30.4"/>
	<path id="tree_13_" fill="#8C6239" stroke="#000000" stroke-miterlimit="10" d="M465.9,215.2c-3,0.1-4.7,0-5.3,0
		c-2.6-0.1-4.8-0.3-7.6-1c-3.7-1,4.2-32,5.5-38c2.5-11.6-24.2-24.9-28.3-31.5c-2.6-4.1-28.3-44.2-11.5-42
		c14.8,2,10.5,40.1,39.1,43.9c1.6,0.2,6.7-4.1,6.4-21.9c-0.1-6.7-3-36,5.4-34.3c7.9,1.6,9.5,44.2,7.6,53.1
		c-1.4,6.6,15,10.8,19.4,6.4c1.9-1.9,9.2-40,15.9-50.8c2.6-4.2,11.8-9.5,9.4,5.7c-0.2,0.9-8.6,31.9-8.9,44.9
		c-0.2,9.2-4.3,11.1-8.5,12.7c-6.2,2.4-17.5,3.8-16.5,9.9c0.3,1.9,6.1,39.7,2.9,40.5c-5.2,1.3-7.9,1.2-16.2,2
		C472.2,214.9,469.6,215.1,465.9,215.2z"/>
	<ellipse id="leaves3_13_" fill="#22B573" cx="506.5" cy="109.9" rx="41.1" ry="27.3"/>
	<ellipse id="leaves2_13_" fill="#22B573" cx="432.7" cy="108.3" rx="32.6" ry="21"/>
	<ellipse id="leaves1_13_" fill="#22B573" cx="472.2" cy="97.2" rx="47.4" ry="34"/>
	<path id="tree_12_" fill="#8C6239" stroke="#000000" stroke-miterlimit="10" d="M366,231.4c-3.1,0.1-4.9,0.1-5.4,0
		c-2.7-0.1-5-0.2-7.8-1c-3.8-1-4.2-39-2.9-45.1c2.5-11.9-16.3-19.4-20.5-26.1c-2.6-4.2-19-52.2-1.8-49.9c15.2,2,0.8,48,30.1,51.9
		c1.8,0.2,6.9-4.2,6.6-22.5c-0.1-6.9,5.1-35.5,13.8-33.8c8.1,1.7,1.5,43.9-0.4,53c-1.4,6.7,15.2,5.7,19.8,1.2
		c2-1.9,1.3-22.8,8.1-33.8c2.7-4.2,28.1-18.1,25.7-2.5c-0.2,1-11.2,28.5-17,41.4c-5.8,9.6-14.4,13.2-18.7,14.9
		c-6.4,2.4-14.1,3.2-13.1,9.4c0.4,2,12.5,39.5,9.2,40.3c-5.3,1.2-8.1,1.2-16.6,2C372.6,231.1,369.9,231.2,366,231.4z"/>
	<ellipse id="leaves3_12_" fill="#22B573" cx="407.5" cy="107.2" rx="42.1" ry="28"/>
	<ellipse id="leaves2_12_" fill="#22B573" cx="327.2" cy="113.1" rx="33.4" ry="21.5"/>
	<ellipse id="leaves1_12_" fill="#22B573" cx="370.6" cy="104.1" rx="40.5" ry="29.7"/>
</g>
<g>
	<path id="tree_11_" fill="#8C6239" stroke="#000000" stroke-miterlimit="10" d="M811.3,251.3c-3.1,0.1-4.9,0.1-5.4,0
		c-2.7-0.1-5-0.2-7.8-0.9c-3.7-0.9-0.9-27.8,0.4-33.7c2.6-11.3-26.8-21.7-31-28.1c-2.7-4.1-8.2-44.7,9.1-42.5
		c6.9,7-2.8,34.3,26.5,38c1.7,0.3,0.9,2.3,0.5-15.2c-0.1-6.6-1.6-23.8,7.1-22.2c8.1,1.6,14.2,25.6,12.2,34.3
		c-1.4,6.4,11.3,0.7,15.9-3.6c1.9-1.9,10.7-16.3,17.5-26.8c2.7-4.1,22.7-18.1,20.3-3.2c-0.2,0.9-7.9,18.4-13.6,30.7
		c-5.8,9.1-18.4,20.7-22.7,22.3c-6.4,2.4-9,16.6-8.1,22.5c0.3,1.9,8,25.1,4.7,25.9c-5.3,1.2-8.1,1.2-16.6,1.9
		C817.6,250.9,815,251.1,811.3,251.3z"/>
	<ellipse id="leaves3_11_" fill="#22B573" cx="864.1" cy="139.5" rx="30.7" ry="19.8"/>
	<ellipse id="leaves2_11_" fill="#22B573" cx="776" cy="142.8" rx="26.5" ry="18.5"/>
	<ellipse id="leaves1_11_" fill="#22B573" cx="813.5" cy="135.7" rx="44.8" ry="30.4"/>
	<path id="tree_10_" fill="#8C6239" stroke="#000000" stroke-miterlimit="10" d="M993.3,250.5c-3,0.1-4.7,0-5.3,0
		c-2.6-0.1-4.8-0.3-7.6-1c-3.7-1,4.2-32,5.5-38c2.5-11.6-24.2-24.9-28.3-31.5c-2.6-4.1-28.3-44.2-11.5-42
		c14.8,2,10.5,40.1,39.1,43.9c1.6,0.2,6.7-4.1,6.4-21.9c-0.1-6.7-3-36,5.4-34.3c7.9,1.6,9.5,44.2,7.6,53.1
		c-1.4,6.6,15,10.8,19.4,6.4c1.9-1.9,9.2-40,15.9-50.8c2.6-4.2,11.8-9.5,9.4,5.7c-0.2,0.9-8.6,31.9-8.9,44.9
		c-0.2,9.2-4.3,11.1-8.5,12.7c-6.2,2.4-17.5,3.8-16.5,9.9c0.3,1.9,6.1,39.7,2.9,40.5c-5.2,1.3-7.9,1.2-16.2,2
		C999.5,250.2,997,250.5,993.3,250.5z"/>
	<ellipse id="leaves3_10_" fill="#22B573" cx="1033.9" cy="145.2" rx="41.1" ry="27.3"/>
	<ellipse id="leaves2_10_" fill="#22B573" cx="960.1" cy="143.6" rx="32.6" ry="21"/>
	<ellipse id="leaves1_10_" fill="#22B573" cx="999.6" cy="132.5" rx="47.4" ry="34"/>
	<path id="tree_9_" fill="#8C6239" stroke="#000000" stroke-miterlimit="10" d="M893.4,266.7c-3.1,0.1-4.9,0.1-5.4,0
		c-2.7-0.1-5-0.2-7.8-1c-3.8-1-4.2-39-2.9-45.1c2.5-11.9-16.3-19.4-20.5-26.1c-2.6-4.2-19-52.2-1.8-49.9c15.2,2,0.8,48,30.1,51.9
		c1.8,0.2,6.9-4.2,6.6-22.5c-0.1-6.9,5.1-35.5,13.8-33.8c8.1,1.7,1.5,43.9-0.4,53c-1.4,6.7,15.2,5.7,19.8,1.2
		c2-1.9,1.3-22.8,8.1-33.8c2.7-4.2,28.1-18.1,25.7-2.5c-0.2,1-11.2,28.5-17,41.4c-5.8,9.6-14.4,13.2-18.7,14.9
		c-6.4,2.4-14.1,3.2-13.1,9.4c0.4,2,12.5,39.5,9.2,40.3c-5.3,1.2-8.1,1.2-16.6,2C900,266.4,897.3,266.6,893.4,266.7z"/>
	<ellipse id="leaves3_9_" fill="#22B573" cx="934.8" cy="142.5" rx="42.1" ry="28"/>
	<ellipse id="leaves2_9_" fill="#22B573" cx="854.5" cy="148.5" rx="33.4" ry="21.5"/>
	<ellipse id="leaves1_9_" fill="#22B573" cx="898" cy="139.4" rx="40.5" ry="29.7"/>
</g>
<g>
	<path id="tree_5_" fill="#8C6239" stroke="#000000" stroke-miterlimit="10" d="M292.1,245c-3.1,0.1-4.9,0.1-5.4,0
		c-2.7-0.1-5-0.2-7.8-0.9c-3.7-0.9-0.9-27.8,0.4-33.7c2.6-11.3-26.8-21.7-31-28.1c-2.7-4.1-8.2-44.7,9.1-42.5
		c6.9,7-2.8,34.3,26.5,38c1.7,0.3,0.9,2.3,0.5-15.2c-0.1-6.6-1.6-23.8,7.1-22.2c8.1,1.6,14.2,25.6,12.2,34.3
		c-1.4,6.4,11.3,0.7,15.9-3.6c1.9-1.9,10.7-16.3,17.5-26.8c2.7-4.1,22.7-18.1,20.3-3.2c-0.2,0.9-7.9,18.4-13.6,30.7
		c-5.8,9.1-18.4,20.7-22.7,22.3c-6.4,2.4-9,16.6-8.1,22.5c0.3,1.9,8,25.1,4.7,25.9c-5.3,1.2-8.1,1.2-16.6,1.9
		C298.5,244.7,295.8,244.9,292.1,245z"/>
	<ellipse id="leaves3_5_" fill="#22B573" cx="344.9" cy="133.2" rx="30.7" ry="19.8"/>
	<ellipse id="leaves2_5_" fill="#22B573" cx="256.8" cy="136.6" rx="26.5" ry="18.5"/>
	<ellipse id="leaves1_5_" fill="#22B573" cx="294.3" cy="129.5" rx="44.8" ry="30.4"/>
	<path id="tree_4_" fill="#8C6239" stroke="#000000" stroke-miterlimit="10" d="M474.2,244.3c-3,0.1-4.7,0-5.3,0
		c-2.6-0.1-4.8-0.3-7.6-1c-3.7-1,4.2-32,5.5-38c2.5-11.6-24.2-24.9-28.3-31.5c-2.6-4.1-28.3-44.2-11.5-42
		c14.8,2,10.5,40.1,39.1,43.9c1.6,0.2,6.7-4.1,6.4-21.9c-0.1-6.7-3-36,5.4-34.3c7.9,1.6,9.5,44.2,7.6,53.1
		c-1.4,6.6,15,10.8,19.4,6.4c1.9-1.9,9.2-40,15.9-50.8c2.6-4.2,11.8-9.5,9.4,5.7c-0.2,0.9-8.6,31.9-8.9,44.9
		c-0.2,9.2-4.3,11.1-8.5,12.7c-6.2,2.4-17.5,3.8-16.5,9.9c0.3,1.9,6.1,39.7,2.9,40.5c-5.2,1.3-7.9,1.2-16.2,2
		C480.4,244,477.8,244.2,474.2,244.3z"/>
	<ellipse id="leaves3_4_" fill="#22B573" cx="514.7" cy="139" rx="41.1" ry="27.3"/>
	<ellipse id="leaves2_4_" fill="#22B573" cx="440.9" cy="137.4" rx="32.6" ry="21"/>
	<ellipse id="leaves1_4_" fill="#22B573" cx="480.5" cy="126.3" rx="47.4" ry="34"/>
	<path id="tree_3_" fill="#8C6239" stroke="#000000" stroke-miterlimit="10" d="M374.2,260.5c-3.1,0.1-4.9,0.1-5.4,0
		c-2.7-0.1-5-0.2-7.8-1c-3.8-1-4.2-39-2.9-45.1c2.5-11.9-16.3-19.4-20.5-26.1c-2.6-4.2-19-52.2-1.8-49.9c15.2,2,0.8,48,30.1,51.9
		c1.8,0.2,6.9-4.2,6.6-22.5c-0.1-6.9,5.1-35.5,13.8-33.8c8.1,1.7,1.5,43.9-0.4,53c-1.4,6.7,15.2,5.7,19.8,1.2
		c2-1.9,1.3-22.8,8.1-33.8c2.7-4.2,28.1-18.1,25.7-2.5c-0.2,1-11.2,28.5-17,41.4c-5.8,9.6-14.4,13.2-18.7,14.9
		c-6.4,2.4-14.1,3.2-13.1,9.4c0.4,2,12.5,39.5,9.2,40.3c-5.3,1.2-8.1,1.2-16.6,2C380.8,260.2,378.1,260.3,374.2,260.5z"/>
	<ellipse id="leaves3_3_" fill="#22B573" cx="415.7" cy="136.3" rx="42.1" ry="28"/>
	<ellipse id="leaves2_3_" fill="#22B573" cx="335.4" cy="142.2" rx="33.4" ry="21.5"/>
	<ellipse id="leaves1_3_" fill="#22B573" cx="378.9" cy="133.2" rx="40.5" ry="29.7"/>
</g>
<g>
	<path id="tree_2_" fill="#8C6239" stroke="#000000" stroke-miterlimit="10" d="M231.2,256.9c-8.5-0.8-11.3-0.8-16.6-1.9
		c-3.3-0.8,4.4-24,4.7-25.9c1-5.9-1.7-20.1-8.1-22.5c-4.3-1.6-16.8-13.1-22.7-22.3c-5.8-12.4-13.5-29.8-13.6-30.7
		c-2.4-14.9,17.6-0.9,20.3,3.2c6.8,10.6,15.6,25,17.5,26.8c4.6,4.3,17.3,10.1,15.9,3.6c-1.9-8.7,4.2-32.7,12.2-34.3
		c8.7-1.6,7.2,15.6,7.1,22.2c-0.4,17.4-1.2,15.4,0.5,15.2c29.3-3.7,19.6-31,26.5-38c17.3-2.2,11.8,38.4,9.1,42.5
		c-4.2,6.4-33.6,16.8-31,28.1c1.2,5.8,4.1,32.8,0.4,33.7c-2.8,0.8-5.1,0.8-7.8,0.9c-0.5,0.1-2.3,0.1-5.4,0
		C236.5,257.3,233.9,257.2,231.2,256.9z"/>
	<ellipse id="leaves3_2_" fill="#22B573" cx="187.4" cy="145.7" rx="30.7" ry="19.8"/>
	<ellipse id="leaves2_2_" fill="#22B573" cx="275.5" cy="149.1" rx="26.5" ry="18.5"/>
	<ellipse id="leaves1_2_" fill="#22B573" cx="238" cy="142" rx="44.8" ry="30.4"/>
	<path id="tree" fill="#8C6239" stroke="#000000" stroke-miterlimit="10" d="M49.3,256.2c-8.3-0.8-11-0.7-16.2-2
		c-3.2-0.8,2.6-38.6,2.9-40.5c1-6.1-10.3-7.5-16.5-9.9c-4.1-1.6-8.3-3.5-8.5-12.7c-0.3-13-8.8-44-8.9-44.9
		c-2.3-15.2,6.8-9.9,9.4-5.7c6.7,10.8,14,48.9,15.9,50.8c4.5,4.5,20.8,0.2,19.4-6.4c-1.9-8.9-0.3-51.5,7.6-53.1
		c8.4-1.7,5.5,27.6,5.4,34.3c-0.3,17.8,4.7,22.1,6.4,21.9c28.6-3.8,24.2-41.9,39.1-43.9c16.9-2.2-8.9,37.8-11.5,42
		c-4.1,6.6-30.7,19.9-28.3,31.5c1.3,6,9.2,37,5.5,38c-2.8,0.7-5,0.9-7.6,1c-0.6,0-2.2,0.1-5.3,0C54.5,256.7,52,256.4,49.3,256.2z"/>
	<ellipse id="leaves3" fill="#22B573" cx="17.6" cy="151.4" rx="41.1" ry="27.3"/>
	<ellipse id="leaves2" fill="#22B573" cx="91.4" cy="149.9" rx="32.6" ry="21"/>
	<ellipse id="leaves1" fill="#22B573" cx="51.9" cy="138.7" rx="47.4" ry="34"/>
	<path id="tree_1_" fill="#8C6239" stroke="#000000" stroke-miterlimit="10" d="M148.9,272.4c-8.5-0.8-11.2-0.8-16.6-2
		c-3.3-0.8,8.9-38.2,9.2-40.3c1-6.2-6.7-7-13.1-9.4c-4.2-1.7-12.8-5.3-18.7-14.9c-5.8-12.9-16.8-40.5-17-41.4
		c-2.4-15.6,23-1.8,25.7,2.5c6.8,11.1,6.1,31.9,8.1,33.8c4.6,4.5,21.2,5.6,19.8-1.2c-1.9-9.1-8.6-51.4-0.4-53
		c8.7-1.7,13.9,26.9,13.8,33.8c-0.4,18.2,4.8,22.7,6.6,22.5c29.3-3.9,14.9-49.8,30.1-51.9c17.3-2.3,0.8,45.7-1.8,49.9
		c-4.2,6.7-22.9,14.3-20.5,26.1c1.2,6.1,0.9,44.1-2.9,45.1c-2.8,0.8-5.1,0.9-7.8,1c-0.5,0.1-2.3,0.1-5.4,0
		C154.2,272.8,151.5,272.6,148.9,272.4z"/>
	<ellipse id="leaves3_1_" fill="#22B573" cx="116.7" cy="148.8" rx="42.1" ry="28"/>
	<ellipse id="leaves2_1_" fill="#22B573" cx="197" cy="154.7" rx="33.4" ry="21.5"/>
	<ellipse id="leaves1_1_" fill="#22B573" cx="153.5" cy="145.7" rx="40.5" ry="29.7"/>
</g>
<g>
	<path id="tree_8_" fill="#8C6239" stroke="#000000" stroke-miterlimit="10" d="M721.4,260.4c-8.5-0.8-11.3-0.8-16.6-1.9
		c-3.3-0.8,4.4-24,4.7-25.9c1-5.9-1.7-20.1-8.1-22.5c-4.3-1.6-16.8-13.1-22.7-22.3c-5.8-12.4-13.5-29.8-13.6-30.7
		c-2.4-14.9,17.6-0.9,20.3,3.2c6.8,10.6,15.6,25,17.5,26.8c4.6,4.3,17.3,10.1,15.9,3.6c-1.9-8.7,4.2-32.7,12.2-34.3
		c8.7-1.6,7.2,15.6,7.1,22.2c-0.4,17.4-1.2,15.4,0.5,15.2c29.3-3.7,19.6-31,26.5-38c17.3-2.2,11.8,38.4,9.1,42.5
		c-4.2,6.4-33.6,16.8-31,28.1c1.2,5.8,4.1,32.8,0.4,33.7c-2.8,0.8-5.1,0.8-7.8,0.9c-0.5,0.1-2.3,0.1-5.4,0
		C726.7,260.8,724.1,260.6,721.4,260.4z"/>
	<ellipse id="leaves3_8_" fill="#22B573" cx="677.6" cy="149.1" rx="30.7" ry="19.8"/>
	<ellipse id="leaves2_8_" fill="#22B573" cx="765.7" cy="152.5" rx="26.5" ry="18.5"/>
	<ellipse id="leaves1_8_" fill="#22B573" cx="728.2" cy="145.4" rx="44.8" ry="30.4"/>
	<path id="tree_7_" fill="#8C6239" stroke="#000000" stroke-miterlimit="10" d="M539.5,259.6c-8.3-0.8-11-0.7-16.2-2
		c-3.2-0.8,2.6-38.6,2.9-40.5c1-6.1-10.3-7.5-16.5-9.9c-4.1-1.6-8.3-3.5-8.5-12.7c-0.3-13-8.8-44-8.9-44.9
		c-2.3-15.2,6.8-9.9,9.4-5.7c6.7,10.8,14,48.9,15.9,50.8c4.5,4.5,20.8,0.2,19.4-6.4c-1.9-8.9-0.3-51.5,7.6-53.1
		c8.4-1.7,5.5,27.6,5.4,34.3c-0.3,17.8,4.7,22.1,6.4,21.9c28.6-3.8,24.2-41.9,39.1-43.9c16.9-2.2-8.9,37.8-11.5,42
		c-4.1,6.6-30.7,19.9-28.3,31.5c1.3,6,9.2,37,5.5,38c-2.8,0.7-5,0.9-7.6,1c-0.6,0-2.2,0.1-5.3,0
		C544.7,260.2,542.2,259.9,539.5,259.6z"/>
	<ellipse id="leaves3_7_" fill="#22B573" cx="507.8" cy="154.9" rx="41.1" ry="27.3"/>
	<ellipse id="leaves2_7_" fill="#22B573" cx="581.6" cy="153.3" rx="32.6" ry="21"/>
	<ellipse id="leaves1_7_" fill="#22B573" cx="542.1" cy="142.2" rx="47.4" ry="34"/>
	<path id="tree_6_" fill="#8C6239" stroke="#000000" stroke-miterlimit="10" d="M639.1,275.8c-8.5-0.8-11.2-0.8-16.6-2
		c-3.3-0.8,8.9-38.2,9.2-40.3c1-6.2-6.7-7-13.1-9.4c-4.2-1.7-12.8-5.3-18.7-14.9c-5.8-12.9-16.8-40.5-17-41.4
		c-2.4-15.6,23-1.8,25.7,2.5c6.8,11.1,6.1,31.9,8.1,33.8c4.6,4.5,21.2,5.6,19.8-1.2c-1.9-9.1-8.6-51.4-0.4-53
		c8.7-1.7,13.9,26.9,13.8,33.8c-0.4,18.2,4.8,22.7,6.6,22.5c29.3-3.9,14.9-49.8,30.1-51.9c17.3-2.3,0.8,45.7-1.8,49.9
		c-4.2,6.7-22.9,14.3-20.5,26.1c1.2,6.1,0.9,44.1-2.9,45.1c-2.8,0.8-5.1,0.9-7.8,1c-0.5,0.1-2.3,0.1-5.4,0
		C644.4,276.3,641.7,276.1,639.1,275.8z"/>
	<ellipse id="leaves3_6_" fill="#22B573" cx="606.8" cy="152.2" rx="42.1" ry="28"/>
	<ellipse id="leaves2_6_" fill="#22B573" cx="687.1" cy="158.1" rx="33.4" ry="21.5"/>
	<ellipse id="leaves1_6_" fill="#22B573" cx="643.7" cy="149.1" rx="40.5" ry="29.7"/>
</g>
</svg>
