<?xml version="1.0" encoding="utf-8"?>
<!-- Generator: Adobe Illustrator 18.1.1, SVG Export Plug-In . SVG Version: 6.00 Build 0)  -->
<svg version="1.1" id="Layer_1" xmlns="http://www.w3.org/2000/svg" xmlns:xlink="http://www.w3.org/1999/xlink" x="0px" y="0px"
	 viewBox="0 0 100 100" style="enable-background:new 0 0 100 100;" xml:space="preserve">
<style type="text/css">
	.st0{fill:#10A00B;}
	.st1{fill:#13930C;}
</style>
<rect class="st0" width="100" height="100"/>
<path class="st1" d="M13.3,15.8c-0.4-4-0.6-6.5-0.4-6.5c0.3,0,1.3,6.3,1.7,6.3c0.5-0.1-0.4-10,0-10c0.4,0,1.6,10.3,2.1,10.3
	c0.4,0-0.2-7.8,0.4-7.9c0.3,0,1,3,1.8,7.9"/>
<path class="st1" d="M39.3,48.8c-0.4-4-0.6-6.5-0.4-6.5c0.3,0,1.3,6.3,1.7,6.3c0.5-0.1-0.4-10,0-10c0.4,0,1.6,10.3,2.1,10.3
	c0.4,0-0.2-7.8,0.4-7.9c0.3,0,1,3,1.8,7.9"/>
<path class="st1" d="M21.3,83.8c-0.4-4-0.6-6.5-0.4-6.5c0.3,0,1.3,6.3,1.7,6.3c0.5-0.1-0.4-10,0-10c0.4,0,1.6,10.3,2.1,10.3
	c0.4,0-0.2-7.8,0.4-7.9c0.3,0,1,3,1.8,7.9"/>
<path class="st1" d="M85.3,96.8c-0.4-4-0.6-6.5-0.4-6.5c0.3,0,1.3,6.3,1.7,6.3c0.5-0.1-0.4-10,0-10c0.4,0,1.6,10.3,2.1,10.3
	c0.4,0-0.2-7.8,0.4-7.9c0.3,0,1,3,1.8,7.9"/>
<path class="st1" d="M52.4,5.1c-0.4-4-0.6-6.5-0.4-6.5c0.3,0,1.3,6.3,1.7,6.3c0.5-0.1-0.4-10,0-10c0.4,0,1.6,10.3,2.1,10.3
	c0.4,0-0.2-7.8,0.4-7.9c0.3,0,1,3,1.8,7.9"/>
<path class="st1" d="M52.4,105.1c-0.4-4-0.6-6.5-0.4-6.5c0.3,0,1.3,6.3,1.7,6.3c0.5-0.1-0.4-10,0-10c0.4,0,1.6,10.3,2.1,10.3
	c0.4,0-0.2-7.8,0.4-7.9c0.3,0,1,3,1.8,7.9"/>
<path class="st1" d="M97.4,35.1c-0.4-4-0.6-6.5-0.4-6.5c0.3,0,1.3,6.3,1.7,6.3c0.5-0.1-0.4-10,0-10c0.4,0,1.6,10.3,2.1,10.3
	c0.4,0-0.2-7.8,0.4-7.9c0.3,0,1,3,1.8,7.9"/>
<path class="st1" d="M-2.6,35.1c-0.4-4-0.6-6.5-0.4-6.5c0.3,0,1.3,6.3,1.7,6.3c0.5-0.1-0.4-10,0-10c0.4,0,1.6,10.3,2.1,10.3
	c0.4,0-0.2-7.8,0.4-7.9c0.3,0,1,3,1.8,7.9"/>
<path class="st1" d="M78.3,61.8c-0.4-4-0.6-6.5-0.4-6.5c0.3,0,1.3,6.3,1.7,6.3c0.5-0.1-0.4-10,0-10c0.4,0,1.6,10.3,2.1,10.3
	c0.4,0-0.2-7.8,0.4-7.9c0.3,0,1,3,1.8,7.9"/>
<path class="st1" d="M58.3,27.8c-0.4-4-0.6-6.5-0.4-6.5c0.3,0,1.3,6.3,1.7,6.3c0.5-0.1-0.4-10,0-10c0.4,0,1.6,10.3,2.1,10.3
	c0.4,0-0.2-7.8,0.4-7.9c0.3,0,1,3,1.8,7.9"/>
<path class="st1" d="M9.3,62.8c-0.4-4-0.6-6.5-0.4-6.5c0.3,0,1.3,6.3,1.7,6.3c0.5-0.1-0.4-10,0-10c0.4,0,1.6,10.3,2.1,10.3
	c0.4,0-0.2-7.8,0.4-7.9c0.3,0,1,3,1.8,7.9"/>
<path class="st1" d="M51.3,79.8c-0.4-4-0.6-6.5-0.4-6.5c0.3,0,1.3,6.3,1.7,6.3c0.5-0.1-0.4-10,0-10c0.4,0,1.6,10.3,2.1,10.3
	c0.4,0-0.2-7.8,0.4-7.9c0.3,0,1,3,1.8,7.9"/>
<path class="st1" d="M67.3,48.8c-0.4-4-0.6-6.5-0.4-6.5c0.3,0,1.3,6.3,1.7,6.3c0.5-0.1-0.4-10,0-10c0.4,0,1.6,10.3,2.1,10.3
	c0.4,0-0.2-7.8,0.4-7.9c0.3,0,1,3,1.8,7.9"/>
<path class="st1" d="M95.4,75.1c-0.4-4-0.6-6.5-0.4-6.5c0.3,0,1.3,6.3,1.7,6.3c0.5-0.1-0.4-10,0-10c0.4,0,1.6,10.3,2.1,10.3
	c0.4,0-0.2-7.8,0.4-7.9c0.3,0,1,3,1.8,7.9"/>
<path class="st1" d="M-0.6,75.1c-0.4-4-0.6-6.5-0.4-6.5c0.3,0,1.3,6.3,1.7,6.3c0.5-0.1-0.4-10,0-10c0.4,0,1.6,10.3,2.1,10.3
	c0.4,0-0.2-7.8,0.4-7.9c0.3,0,1,3,1.8,7.9"/>
<path class="st1" d="M90.3,11.8c-0.4-4-0.6-6.5-0.4-6.5c0.3,0,1.3,6.3,1.7,6.3c0.5-0.1-0.4-10,0-10c0.4,0,1.6,10.3,2.1,10.3
	c0.4,0-0.2-7.8,0.4-7.9c0.3,0,1,3,1.8,7.9"/>
<path class="st1" d="M37.3,21.8c-0.4-4-0.6-6.5-0.4-6.5c0.3,0,1.3,6.3,1.7,6.3c0.5-0.1-0.4-10,0-10c0.4,0,1.6,10.3,2.1,10.3
	c0.4,0-0.2-7.8,0.4-7.9c0.3,0,1,3,1.8,7.9"/>
<path class="st1" d="M19.3,33.8c-0.4-4-0.6-6.5-0.4-6.5c0.3,0,1.3,6.3,1.7,6.3c0.5-0.1-0.4-10,0-10c0.4,0,1.6,10.3,2.1,10.3
	c0.4,0-0.2-7.8,0.4-7.9c0.3,0,1,3,1.8,7.9"/>
<path class="st1" d="M32.3,66.8c-0.4-4-0.6-6.5-0.4-6.5c0.3,0,1.3,6.3,1.7,6.3c0.5-0.1-0.4-10,0-10c0.4,0,1.6,10.3,2.1,10.3
	c0.4,0-0.2-7.8,0.4-7.9c0.3,0,1,3,1.8,7.9"/>
<path class="st1" d="M73.3,78.8c-0.4-4-0.6-6.5-0.4-6.5c0.3,0,1.3,6.3,1.7,6.3c0.5-0.1-0.4-10,0-10c0.4,0,1.6,10.3,2.1,10.3
	c0.4,0-0.2-7.8,0.4-7.9c0.3,0,1,3,1.8,7.9"/>
<path class="st1" d="M57.3,61.8c-0.4-4-0.6-6.5-0.4-6.5c0.3,0,1.3,6.3,1.7,6.3c0.5-0.1-0.4-10,0-10c0.4,0,1.6,10.3,2.1,10.3
	c0.4,0-0.2-7.8,0.4-7.9c0.3,0,1,3,1.8,7.9"/>
<path class="st1" d="M79.3,29.8c-0.4-4-0.6-6.5-0.4-6.5c0.3,0,1.3,6.3,1.7,6.3c0.5-0.1-0.4-10,0-10c0.4,0,1.6,10.3,2.1,10.3
	c0.4,0-0.2-7.8,0.4-7.9c0.3,0,1,3,1.8,7.9"/>
<path class="st1" d="M5.3,94.8c-0.4-4-0.6-6.5-0.4-6.5c0.3,0,1.3,6.3,1.7,6.3c0.5-0.1-0.4-10,0-10c0.4,0,1.6,10.3,2.1,10.3
	c0.4,0-0.2-7.8,0.4-7.9c0.3,0,1,3,1.8,7.9"/>
<path class="st1" d="M36.3,95.8c-0.4-4-0.6-6.5-0.4-6.5c0.3,0,1.3,6.3,1.7,6.3c0.5-0.1-0.4-10,0-10c0.4,0,1.6,10.3,2.1,10.3
	c0.4,0-0.2-7.8,0.4-7.9c0.3,0,1,3,1.8,7.9"/>
<path class="st1" d="M88.3,50.8c-0.4-4-0.6-6.5-0.4-6.5c0.3,0,1.3,6.3,1.7,6.3c0.5-0.1-0.4-10,0-10c0.4,0,1.6,10.3,2.1,10.3
	c0.4,0-0.2-7.8,0.4-7.9c0.3,0,1,3,1.8,7.9"/>
<path class="st1" d="M20.3,50.8c-0.4-4-0.6-6.5-0.4-6.5c0.3,0,1.3,6.3,1.7,6.3c0.5-0.1-0.4-10,0-10c0.4,0,1.6,10.3,2.1,10.3
	c0.4,0-0.2-7.8,0.4-7.9c0.3,0,1,3,1.8,7.9"/>
<path class="st1" d="M48.3,39.8c-0.4-4-0.6-6.5-0.4-6.5c0.3,0,1.3,6.3,1.7,6.3c0.5-0.1-0.4-10,0-10c0.4,0,1.6,10.3,2.1,10.3
	c0.4,0-0.2-7.8,0.4-7.9c0.3,0,1,3,1.8,7.9"/>
<g>
</g>
<g>
</g>
<g>
</g>
<g>
</g>
<g>
</g>
<g>
</g>
<g>
</g>
<g>
</g>
<g>
</g>
<g>
</g>
<g>
</g>
<g>
</g>
<g>
</g>
<g>
</g>
<g>
</g>
</svg>
