<?xml version="1.0" encoding="utf-8"?>
<!-- Generator: Adobe Illustrator 18.1.1, SVG Export Plug-In . SVG Version: 6.00 Build 0)  -->
<svg version="1.1" id="Layer_1" xmlns="http://www.w3.org/2000/svg" xmlns:xlink="http://www.w3.org/1999/xlink" x="0px" y="0px"
	 viewBox="0 0 100 100" enable-background="new 0 0 100 100" xml:space="preserve">
<g id="MagmaRock">
	<image overflow="visible" opacity="0.75" width="110" height="110" xlink:href="44F73800.png"  transform="matrix(1 0 0 1 -5 -5)">
	</image>
	<g>
		<g>
			<g>
				<g>
					<defs>
						<path id="SVGID_1_" d="M20.7,48.1L3.3,41c0.9-4.8,2.6-9.5,4.9-13.7l17,20.9L20.7,48.1z M54.8,24.7l0.4,0.3l12.4-2.5l-2.4-10.6
							L54.8,24.7z M64.3,48.2l-5.7,1.3l0.6,2.7l4.4,3.7L64.3,48.2z M47.9,22.8l-5.1-2.1l8-7.1l-23.9-5c-3.4,1.9-6.4,4.2-9.2,6.7
							l16.5,18.3L47.9,22.8z M31.6,48.4h0.5l19.5-2.9L52,28.8l-4.3,0.6l-0.4,0.2L34.2,39.9l-9.4-14.8l-7.4-9.5
							c-3.1,2.9-5.7,6.2-7.9,9.8l6.3,5.7L31.6,48.4z M77.4,55l-3.6-8.9l-7.7,1.7l-0.3,9.8L78.4,68L77.4,55z M66.2,27.4L66,27
							l-12.4,1.6l4.3,17.9l6.6-1.2L66.2,27.4z M63,62.3l0.3-2.7l-9.8-9l-3.9,0.9l-17.3,0.7l-0.6,18.2l6.7,7.5v0.7L63,62.3z
							 M27.2,52.4l-6.9,0.2l-8.1-4.3L3,43.2c-0.3,2.3-0.5,4.6-0.5,6.8c0,8.1,2.1,15.7,5.6,22.4l20.4-3.5L27.2,52.4z M56.1,13.3
							l-8.3,7l1.9,1.2l15-11.9l-1.1-5.1c-4.4-1.3-8.9-2-13.7-2c-6.8,0-13.3,1.4-19.1,4.1l10.2,0.8L56.1,13.3z M78.9,73.8v-0.2
							l-1.5-1.4l-9.2,13.5l3.6,6.5c5.6-2.9,10.6-6.8,14.6-11.6l-7.3-7L78.9,73.8z M62.5,67.9l-6.9,4.5l-17.1,7l-1.1,16.4
							c4,1.1,8.2,1.7,12.7,1.7c7.3,0,14.3-1.7,20.5-4.7l-9.3-10.8L62.5,67.9z M27,72.5L9.2,74.2c5.9,9.9,15.3,17.5,26.5,21.1
							L35,78.8L27,72.5z M96.7,41.1l-18.4,4.1l3.9,8.5l-2.5,15.4l7.6,10.3c6.3-8,10.2-18.3,10.2-29.4C97.5,46.9,97.2,44,96.7,41.1z
							 M68.7,64l-3.1,2l-0.4,16.3L74.9,70L68.7,64z M77.3,43.1l19-3.4c-1.3-5.9-3.8-11.5-7-16.4l-19.5,3L77.3,43.1z M72.9,43.9
							l-6.3-15.7l-0.4,16.9L72.9,43.9z M71.7,23.1l16.9-0.7c-4.8-6.8-11.5-12.3-19.1-15.7l-2.7,3.2L71.7,23.1z M68.9,6.5
							C67.6,5.9,66.3,5.4,65,5l1.3,3.5L68.9,6.5z"/>
					</defs>
					<clipPath id="SVGID_2_">
						<use xlink:href="#SVGID_1_"  overflow="visible"/>
					</clipPath>
					<g clip-path="url(#SVGID_2_)">
						
							<image overflow="visible" enable-background="new    " width="500" height="500" xlink:href="2B87E050.jpg"  transform="matrix(0.1979 0 0 0.1979 0.5208 0.5208)">
						</image>
					</g>
				</g>
			</g>
		</g>
	</g>
</g>
</svg>
