<?xml version="1.0" encoding="utf-8"?>
<!-- Generator: Adobe Illustrator 18.1.1, SVG Export Plug-In . SVG Version: 6.00 Build 0)  -->
<svg version="1.1" id="Layer_1" xmlns="http://www.w3.org/2000/svg" xmlns:xlink="http://www.w3.org/1999/xlink" x="0px" y="0px"
	 viewBox="0 0 1000 300" style="enable-background:new 0 0 1000 300;" xml:space="preserve">
<style type="text/css">
	.st0{fill:#009333;}
	.st1{fill:url(#SVGID_1_);}
	.st2{fill:none;stroke:#232624;stroke-width:2;stroke-miterlimit:10;}
	.st3{fill:url(#SVGID_2_);}
	.st4{fill:url(#SVGID_3_);}
	.st5{fill:url(#SVGID_4_);}
	.st6{fill:url(#SVGID_5_);}
	.st7{fill:url(#SVGID_6_);}
	.st8{fill:#8FBE00;}
</style>
<g>
	<polygon class="st0" points="-39.1,273.8 -8.9,192.7 26.8,117.5 58.4,41 85.7,119.2 125.5,192.7 154.1,273.1 89.3,278.4 27.4,271 	
		"/>
</g>
<g>
	<linearGradient id="SVGID_1_" gradientUnits="userSpaceOnUse" x1="72.7561" y1="308.7046" x2="276.0005" y2="166.3914">
		<stop  offset="0" style="stop-color:#8FBE00"/>
		<stop  offset="0.9014" style="stop-color:#8FBE00"/>
		<stop  offset="0.9199" style="stop-color:#8AB30D"/>
		<stop  offset="0.954" style="stop-color:#7C962F"/>
		<stop  offset="0.9996" style="stop-color:#666666"/>
		<stop  offset="1" style="stop-color:#666666"/>
	</linearGradient>
	<polygon class="st1" points="47,271.9 92.5,224.7 119.9,166.3 165.6,121.3 198.2,64 239.8,114.7 268.9,171.8 310.6,219.7 
		349.4,271.9 273,279.2 198.2,268.3 123.3,279.5 	"/>
	<polygon class="st2" points="47,271.9 92.5,224.7 119.9,166.3 165.6,121.3 198.2,64 239.8,114.7 268.9,171.8 310.6,219.7 
		349.4,271.9 273,279.2 198.2,268.3 123.3,279.5 	"/>
</g>
<g>
	<linearGradient id="SVGID_2_" gradientUnits="userSpaceOnUse" x1="261.9293" y1="307.4655" x2="414.3365" y2="179.5806">
		<stop  offset="0" style="stop-color:#8FBE00"/>
		<stop  offset="0.8604" style="stop-color:#8FBE00"/>
		<stop  offset="0.8728" style="stop-color:#8FBE00"/>
		<stop  offset="0.8966" style="stop-color:#8AB30D"/>
		<stop  offset="0.9406" style="stop-color:#7C962F"/>
		<stop  offset="0.9995" style="stop-color:#666666"/>
		<stop  offset="1" style="stop-color:#666666"/>
	</linearGradient>
	<polygon class="st3" points="232.9,272.9 279.8,217 309.4,155.5 349.9,102.8 385.2,159 423.6,214.6 462.6,270 387.4,276.6 
		312.3,264.9 	"/>
	<polygon class="st2" points="232.9,272.9 279.8,217 309.4,155.5 349.9,102.8 385.2,159 423.6,214.6 462.6,270 387.4,276.6 
		312.3,264.9 	"/>
</g>
<g>
	<linearGradient id="SVGID_3_" gradientUnits="userSpaceOnUse" x1="-57.3456" y1="239.9007" x2="114.1596" y2="152.5145">
		<stop  offset="0" style="stop-color:#8FBE00"/>
		<stop  offset="0.8763" style="stop-color:#8FBE00"/>
		<stop  offset="0.8995" style="stop-color:#8AB30D"/>
		<stop  offset="0.9423" style="stop-color:#7C962F"/>
		<stop  offset="0.9995" style="stop-color:#666666"/>
		<stop  offset="1" style="stop-color:#666666"/>
	</linearGradient>
	<polygon class="st4" points="-40.1,273.8 -9.9,192.7 25.8,117.5 57.4,41 84.7,119.2 124.5,192.7 153.1,273.1 88.3,278.4 26.4,271 	
		"/>
	<polygon class="st2" points="-40.1,273.8 -9.9,192.7 25.8,117.5 57.4,41 84.7,119.2 124.5,192.7 153.1,273.1 88.3,278.4 26.4,271 	
		"/>
</g>
<g>
	<linearGradient id="SVGID_4_" gradientUnits="userSpaceOnUse" x1="624.7017" y1="242.3462" x2="813.9019" y2="154.1207">
		<stop  offset="0" style="stop-color:#8FBE00"/>
		<stop  offset="0.8604" style="stop-color:#8FBE00"/>
		<stop  offset="0.8728" style="stop-color:#8FBE00"/>
		<stop  offset="0.8966" style="stop-color:#8AB30D"/>
		<stop  offset="0.9406" style="stop-color:#7C962F"/>
		<stop  offset="0.9995" style="stop-color:#666666"/>
		<stop  offset="1" style="stop-color:#666666"/>
	</linearGradient>
	<polygon class="st5" points="638.6,272.2 670.1,213.4 696.9,156.1 727.1,100.5 754.4,40.3 779.9,101.3 805,159.5 834.8,215.4 
		868.1,270.4 792.1,269.6 716.8,273.3 	"/>
	<polygon class="st2" points="638.6,272.2 670.1,213.4 696.9,156.1 727.1,100.5 754.4,40.3 779.9,101.3 805,159.5 834.8,215.4 
		868.1,270.4 792.1,269.6 716.8,273.3 	"/>
</g>
<g>
	<linearGradient id="SVGID_5_" gradientUnits="userSpaceOnUse" x1="499.7018" y1="347.9726" x2="637.9128" y2="150.5869">
		<stop  offset="0" style="stop-color:#8FBE00"/>
		<stop  offset="0.9028" style="stop-color:#8FBE00"/>
		<stop  offset="0.9158" style="stop-color:#8FBE00"/>
		<stop  offset="0.9316" style="stop-color:#8AB30D"/>
		<stop  offset="0.9607" style="stop-color:#7C962F"/>
		<stop  offset="0.9997" style="stop-color:#666666"/>
		<stop  offset="1" style="stop-color:#666666"/>
	</linearGradient>
	<polygon class="st6" points="382,265.5 422,225.6 458.6,171 504,124.6 553.1,91.2 595.4,131.1 649.8,168.9 685.8,224.1 730.5,269 
		660.4,274.5 588.9,273.1 517.4,260.5 445.7,274.4 	"/>
	<polygon class="st2" points="382,265.5 422,225.6 458.6,171 504,124.6 553.1,91.2 595.4,131.1 649.8,168.9 685.8,224.1 730.5,269 
		660.4,274.5 588.9,273.1 517.4,260.5 445.7,274.4 	"/>
</g>
<g>
	<linearGradient id="SVGID_6_" gradientUnits="userSpaceOnUse" x1="844.7579" y1="340.7632" x2="1002.9655" y2="182.5557">
		<stop  offset="0" style="stop-color:#8FBE00"/>
		<stop  offset="0.8979" style="stop-color:#8FBE00"/>
		<stop  offset="0.917" style="stop-color:#8AB30D"/>
		<stop  offset="0.9523" style="stop-color:#7C962F"/>
		<stop  offset="0.9996" style="stop-color:#666666"/>
		<stop  offset="1" style="stop-color:#666666"/>
	</linearGradient>
	<polygon class="st7" points="773.1,269.1 822.6,213.6 868.4,152.6 921.2,100.8 969.5,156.5 1016.2,216.6 1077.4,272.7 996,267.5 
		921.2,266.7 846.3,266.2 	"/>
	<polygon class="st2" points="773.1,269.1 822.6,213.6 868.4,152.6 921.2,100.8 969.5,156.5 1016.2,216.6 1077.4,272.7 996,267.5 
		921.2,266.7 846.3,266.2 	"/>
</g>
<rect y="255.4" class="st8" width="1000" height="44.6"/>
<rect x="147.5" y="235" transform="matrix(0.5931 0.8051 -0.8051 0.5931 276.2967 -32.0075)" class="st8" width="44.6" height="44.6"/>
<rect x="705.6" y="229.3" transform="matrix(0.5931 0.8051 -0.8051 0.5931 500.812 -487.6991)" class="st8" width="54.7" height="44.6"/>
<rect x="383.2" y="238.8" transform="matrix(0.5931 0.8051 -0.8051 0.5931 371.0775 -211.9714)" class="st8" width="24" height="44.6"/>
<g>
</g>
<g>
</g>
<g>
</g>
<g>
</g>
<g>
</g>
<g>
</g>
<g>
</g>
<g>
</g>
<g>
</g>
<g>
</g>
<g>
</g>
<g>
</g>
<g>
</g>
<g>
</g>
<g>
</g>
</svg>
