<?xml version="1.0" encoding="utf-8"?>
<!-- Generator: Adobe Illustrator 18.1.1, SVG Export Plug-In . SVG Version: 6.00 Build 0)  -->
<svg version="1.1" id="Layer_1" xmlns="http://www.w3.org/2000/svg" xmlns:xlink="http://www.w3.org/1999/xlink" x="0px" y="0px"
	 viewBox="0 0 1000 300" style="enable-background:new 0 0 1000 300;" xml:space="preserve">
<style type="text/css">
	.st0{fill:#009333;}
	.st1{fill:url(#SVGID_1_);}
	.st2{fill:none;stroke:#232624;stroke-width:3;stroke-miterlimit:10;}
	.st3{fill:url(#SVGID_2_);}
	.st4{fill:url(#SVGID_3_);}
	.st5{fill:url(#SVGID_4_);}
	.st6{fill:url(#SVGID_5_);}
	.st7{fill:url(#SVGID_6_);}
	.st8{fill:#39B54A;}
</style>
<g>
	<polygon class="st0" points="-39.1,273.8 -8.9,192.7 26.8,117.5 58.4,41 85.7,119.2 125.5,192.7 154.1,273.1 89.3,278.4 27.4,271 	
		"/>
</g>
<g>
	<linearGradient id="SVGID_1_" gradientUnits="userSpaceOnUse" x1="198.1801" y1="279.4647" x2="198.1801" y2="63.9782">
		<stop  offset="0" style="stop-color:#39B54A"/>
		<stop  offset="0.5932" style="stop-color:#3AB24A"/>
		<stop  offset="0.6898" style="stop-color:#41A54F"/>
		<stop  offset="0.8674" style="stop-color:#55835B"/>
		<stop  offset="1" style="stop-color:#666666"/>
	</linearGradient>
	<polygon class="st1" points="47,271.9 92.5,224.7 119.9,166.3 165.6,121.3 198.2,64 239.8,114.7 268.9,171.8 310.6,219.7 
		349.4,271.9 273,279.2 198.2,268.3 123.3,279.5 	"/>
	<polygon class="st2" points="47,271.9 92.5,224.7 119.9,166.3 165.6,121.3 198.2,64 239.8,114.7 268.9,171.8 310.6,219.7 
		349.4,271.9 273,279.2 198.2,268.3 123.3,279.5 	"/>
</g>
<g>
	<linearGradient id="SVGID_2_" gradientUnits="userSpaceOnUse" x1="347.7326" y1="276.5686" x2="347.7326" y2="102.7936">
		<stop  offset="0" style="stop-color:#39B54A"/>
		<stop  offset="0.5932" style="stop-color:#3AB24A"/>
		<stop  offset="0.6898" style="stop-color:#41A54F"/>
		<stop  offset="0.8674" style="stop-color:#55835B"/>
		<stop  offset="1" style="stop-color:#666666"/>
	</linearGradient>
	<polygon class="st3" points="232.9,272.9 279.8,217 309.4,155.5 349.9,102.8 385.2,159 423.6,214.6 462.6,270 387.4,276.6 
		312.3,264.9 	"/>
	<polygon class="st2" points="232.9,272.9 279.8,217 309.4,155.5 349.9,102.8 385.2,159 423.6,214.6 462.6,270 387.4,276.6 
		312.3,264.9 	"/>
</g>
<g>
	<linearGradient id="SVGID_3_" gradientUnits="userSpaceOnUse" x1="56.4947" y1="278.3994" x2="56.4947" y2="41.0451">
		<stop  offset="0" style="stop-color:#39B54A"/>
		<stop  offset="0.5932" style="stop-color:#3AB24A"/>
		<stop  offset="0.6898" style="stop-color:#41A54F"/>
		<stop  offset="0.8674" style="stop-color:#55835B"/>
		<stop  offset="1" style="stop-color:#666666"/>
	</linearGradient>
	<polygon class="st4" points="-40.1,273.8 -9.9,192.7 25.8,117.5 57.4,41 84.7,119.2 124.5,192.7 153.1,273.1 88.3,278.4 26.4,271 	
		"/>
	<polygon class="st2" points="-40.1,273.8 -9.9,192.7 25.8,117.5 57.4,41 84.7,119.2 124.5,192.7 153.1,273.1 88.3,278.4 26.4,271 	
		"/>
</g>
<g>
	<linearGradient id="SVGID_4_" gradientUnits="userSpaceOnUse" x1="753.3719" y1="273.3068" x2="753.3719" y2="40.2624">
		<stop  offset="0" style="stop-color:#39B54A"/>
		<stop  offset="0.5932" style="stop-color:#3AB24A"/>
		<stop  offset="0.6898" style="stop-color:#41A54F"/>
		<stop  offset="0.8674" style="stop-color:#55835B"/>
		<stop  offset="1" style="stop-color:#666666"/>
	</linearGradient>
	<polygon class="st5" points="638.6,272.2 670.1,213.4 696.9,156.1 727.1,100.5 754.4,40.3 779.9,101.3 805,159.5 834.8,215.4 
		868.1,270.4 792.1,269.6 716.8,273.3 	"/>
	<polygon class="st2" points="638.6,272.2 670.1,213.4 696.9,156.1 727.1,100.5 754.4,40.3 779.9,101.3 805,159.5 834.8,215.4 
		868.1,270.4 792.1,269.6 716.8,273.3 	"/>
</g>
<g>
	<linearGradient id="SVGID_5_" gradientUnits="userSpaceOnUse" x1="556.2051" y1="274.507" x2="556.2051" y2="91.2243">
		<stop  offset="0" style="stop-color:#39B54A"/>
		<stop  offset="0.5932" style="stop-color:#3AB24A"/>
		<stop  offset="0.6898" style="stop-color:#41A54F"/>
		<stop  offset="0.8674" style="stop-color:#55835B"/>
		<stop  offset="1" style="stop-color:#666666"/>
	</linearGradient>
	<polygon class="st6" points="382,265.5 422,225.6 458.6,171 504,124.6 553.1,91.2 595.4,131.1 649.8,168.9 685.8,224.1 730.5,269 
		660.4,274.5 588.9,273.1 517.4,260.5 445.7,274.4 	"/>
	<polygon class="st2" points="382,265.5 422,225.6 458.6,171 504,124.6 553.1,91.2 595.4,131.1 649.8,168.9 685.8,224.1 730.5,269 
		660.4,274.5 588.9,273.1 517.4,260.5 445.7,274.4 	"/>
</g>
<g>
	<linearGradient id="SVGID_6_" gradientUnits="userSpaceOnUse" x1="925.2502" y1="272.6551" x2="925.2502" y2="100.7559">
		<stop  offset="0" style="stop-color:#39B54A"/>
		<stop  offset="0.5932" style="stop-color:#3AB24A"/>
		<stop  offset="0.6898" style="stop-color:#41A54F"/>
		<stop  offset="0.8674" style="stop-color:#55835B"/>
		<stop  offset="1" style="stop-color:#666666"/>
	</linearGradient>
	<polygon class="st7" points="773.1,269.1 822.6,213.6 868.4,152.6 921.2,100.8 969.5,156.5 1016.2,216.6 1077.4,272.7 996,267.5 
		921.2,266.7 846.3,266.2 	"/>
	<polygon class="st2" points="773.1,269.1 822.6,213.6 868.4,152.6 921.2,100.8 969.5,156.5 1016.2,216.6 1077.4,272.7 996,267.5 
		921.2,266.7 846.3,266.2 	"/>
</g>
<rect y="255.4" class="st8" width="1000" height="44.6"/>
<rect x="124.7" y="223.5" transform="matrix(0.5931 0.8051 -0.8051 0.5931 263.5735 -29.8625)" class="st8" width="73.2" height="44.6"/>
<rect x="681.4" y="218.5" transform="matrix(0.5931 0.8051 -0.8051 0.5931 482.2465 -472.6181)" class="st8" width="54.7" height="44.6"/>
<rect x="383.2" y="238.8" transform="matrix(0.5931 0.8051 -0.8051 0.5931 371.0775 -211.9714)" class="st8" width="24" height="44.6"/>
<g>
</g>
<g>
</g>
<g>
</g>
<g>
</g>
<g>
</g>
<g>
</g>
<g>
</g>
<g>
</g>
<g>
</g>
<g>
</g>
<g>
</g>
<g>
</g>
<g>
</g>
<g>
</g>
<g>
</g>
</svg>
