<?xml version="1.0" encoding="utf-8"?>
<!-- Generator: Adobe Illustrator 18.1.1, SVG Export Plug-In . SVG Version: 6.00 Build 0)  -->
<svg version="1.1" id="Layer_1" xmlns="http://www.w3.org/2000/svg" xmlns:xlink="http://www.w3.org/1999/xlink" x="0px" y="0px"
	 viewBox="0 0 1000 300" enable-background="new 0 0 1000 300" xml:space="preserve">
<g>
	<polygon fill="#59524F" points="57.3,317.7 109,256.6 142.3,185 189.7,128.5 246.9,175.1 304.4,227.7 351.8,284.4 282.2,293.7 
		207.9,303.1 134.2,317.3 	"/>
	<polygon fill="none" stroke="#232624" stroke-width="3" stroke-miterlimit="10" points="57.3,317.7 109,256.6 142.3,185 
		189.7,128.5 246.9,175.1 304.4,227.7 351.8,284.4 282.2,293.7 207.9,303.1 134.2,317.3 	"/>
</g>
<g>
	<polygon fill="#59524F" points="238,277.1 282.2,217.4 308.7,153.2 346.7,96.9 384.7,153 425.7,208.3 467.3,263.4 392.6,273.6 
		317,265.5 	"/>
	<polygon fill="none" stroke="#232624" stroke-width="3" stroke-miterlimit="10" points="238,277.1 282.2,217.4 308.7,153.2 
		346.7,96.9 384.7,153 425.7,208.3 467.3,263.4 392.6,273.6 317,265.5 	"/>
</g>
<g>
	<polygon fill="#59524F" points="-32.8,345.9 -13.6,276 12.4,213 34.3,149 89.9,187.6 152.9,215 210.9,255.8 150.8,283.6 89,298.3 
		31,322.8 	"/>
	<polygon fill="none" stroke="#232624" stroke-width="3" stroke-miterlimit="10" points="-32.8,345.9 -13.6,276 12.4,213 34.3,149 
		89.9,187.6 152.9,215 210.9,255.8 150.8,283.6 89,298.3 31,322.8 	"/>
</g>
<g>
	<polygon fill="#59524F" points="610.8,281.5 663.3,220.7 709.6,159.8 758.5,102.2 803.7,162.8 839.6,230.9 877.4,289.8 
		817.5,283.9 749.8,287.6 682.4,283.1 	"/>
	<polygon fill="none" stroke="#232624" stroke-width="3" stroke-miterlimit="10" points="610.8,281.5 663.3,220.7 709.6,159.8 
		758.5,102.2 803.7,162.8 839.6,230.9 877.4,289.8 817.5,283.9 749.8,287.6 682.4,283.1 	"/>
</g>
<g>
	<polygon fill="#59524F" points="363.7,263.1 405.9,219.6 444.5,160.8 492.4,110.7 544.3,74.2 588.8,117.5 646.3,158.7 684.3,218.1 
		731.4,266.7 657.4,272.5 582,271 506.5,257.7 430.9,272.4 	"/>
	<polygon fill="none" stroke="#232624" stroke-width="3" stroke-miterlimit="10" points="363.7,263.1 405.9,219.6 444.5,160.8 
		492.4,110.7 544.3,74.2 588.8,117.5 646.3,158.7 684.3,218.1 731.4,266.7 657.4,272.5 582,271 506.5,257.7 430.9,272.4 	"/>
</g>
<g>
	<polygon fill="#59524F" points="777.5,264.5 832.7,224.4 885.6,178.6 943,142.4 978.2,200.2 1011.3,261.8 1058,322 983.9,302.8 
		914.8,288.7 845.7,275 	"/>
	<polygon fill="none" stroke="#232624" stroke-width="3" stroke-miterlimit="10" points="777.5,264.5 832.7,224.4 885.6,178.6 
		943,142.4 978.2,200.2 1011.3,261.8 1058,322 983.9,302.8 914.8,288.7 845.7,275 	"/>
</g>
<rect y="255.4" fill="#59524F" width="1000" height="44.6"/>
<rect x="130.5" y="212" transform="matrix(0.5931 0.8051 -0.8051 0.5931 268.5913 -40.7993)" fill="#59524F" width="88.2" height="66.7"/>
<rect x="705.6" y="229.3" transform="matrix(0.5931 0.8051 -0.8051 0.5931 500.812 -487.6991)" fill="#59524F" width="54.7" height="44.6"/>
<rect x="383.2" y="238.8" transform="matrix(0.5931 0.8051 -0.8051 0.5931 371.0775 -211.9714)" fill="#59524F" width="24" height="44.6"/>
</svg>
