<?xml version="1.0" encoding="utf-8"?>
<!-- Generator: Adobe Illustrator 18.1.1, SVG Export Plug-In . SVG Version: 6.00 Build 0)  -->
<svg version="1.1" id="Layer_1" xmlns="http://www.w3.org/2000/svg" xmlns:xlink="http://www.w3.org/1999/xlink" x="0px" y="0px"
     viewBox="0 0 300 300" style="enable-background:new 0 0 300 300;" xml:space="preserve">
<style type="text/css">
    .st0{fill:#8C6239;}
    .st1{fill:#22B573;}
</style>
<path id="tree" class="st0" d="M142.1,250.6c-9.6-0.9-12.7-0.9-18.7-2.3c-3.7-0.9,5-28.3,5.3-30.6c1.1-7-1.9-23.8-9.1-26.6
    c-4.8-1.9-19-15.5-25.6-26.3c-6.5-14.6-15.2-35.2-15.4-36.3c-2.7-17.6,19.9-1.1,22.9,3.8c7.7,12.5,17.6,29.5,19.8,31.7
    c5.2,5.1,19.5,11.9,17.9,4.3c-2.2-10.3,4.7-38.6,13.8-40.5c9.8-1.9,8.1,18.4,8,26.2c-0.4,20.6-1.3,18.2,0.6,17.9
    c33.1-4.4,22.1-36.6,29.9-44.9c19.5-2.6,13.3,45.4,10.3,50.2c-4.7,7.6-37.9,19.8-35,33.2c1.4,6.9,4.6,38.7,0.4,39.8
    c-3.2,0.9-5.8,1-8.8,1.1c-0.6,0.1-2.6,0.1-6.1,0C148.1,251.1,145.1,250.9,142.1,250.6z"/>
<ellipse id="leaves3" fill="#22B573" cx="92.7" cy="119.2" rx="34.6" ry="23.4"/>
<ellipse id="leaves2" fill="#22B573" cx="192.1" cy="123.2" rx="29.9" ry="21.8"/>
<ellipse id="leaves1" fill="#22B573" cx="149.8" cy="114.8" rx="50.6" ry="35.9"/>
<animate
    xlink:href="#tree"
    attributeType="CSS"
    attributeName="opacity"
    from="0"
    to="0"
    dur="0.5s"
    repeatCount="0" />
<animate
    xlink:href="#tree"
    attributeType="CSS"
    attributeName="opacity"
    begin="0.5s"
    from="0"
    to="1"
    dur="1s"
    repeatCount="0" />
<animate
    xlink:href="#tree"
    attributeName="d" 
    dur="3000ms" 
    repeatCount="0"
    values="M142.1,250.6c-9.6-0.9-12.7-0.9-18.7-2.3c-3.7-0.9,2.3-1.2,2.6-3.4c-0.8,0.3,3,2.5,2.5,1.8
    c0.4,0.6,6.4,0.7,2.8-0.4c0,0,2.3,1.1,2.1,0c-0.1-0.9-1.6-5.6,1.4-0.7c1.2,0.8,0.9-0.4,3.2,1.8c0.5,0.7,1.9,1,1.4,0.2
    c-0.7,0.8,4.7,0.9,4.7,0.9c-3,1.3-1.8-1-1.4,0c-0.4,0.3,2.7,0.3,4.6,0c3.5,0.6,2,0.5,2.8,0.7c4.6-1.4,4.2-1.4,4.2-0.4
    c-0.9,0.3,6.4-2.8,7.4-3.2c0,0,9.8,3.5,5.5,4.6c-3.2,0.9-5.8,1-8.8,1.1c-0.6,0.1-2.6,0.1-6.1,0C148.1,251.1,145.1,250.9,142.1,250.6
    z;

    M142.1,250.6c-9.6-0.9-12.7-0.9-18.7-2.3c-3.7-0.9,5-28.3,5.3-30.6c1.1-7-1.9-23.8-9.1-26.6
    c-4.8-1.9-19-15.5-25.6-26.3c-6.5-14.6-15.2-35.2-15.4-36.3c-2.7-17.6,19.9-1.1,22.9,3.8c7.7,12.5,17.6,29.5,19.8,31.7
    c5.2,5.1,19.5,11.9,17.9,4.3c-2.2-10.3,4.7-38.6,13.8-40.5c9.8-1.9,8.1,18.4,8,26.2c-0.4,20.6-1.3,18.2,0.6,17.9
    c33.1-4.4,22.1-36.6,29.9-44.9c19.5-2.6,13.3,45.4,10.3,50.2c-4.7,7.6-37.9,19.8-35,33.2c1.4,6.9,4.6,38.7,0.4,39.8
    c-3.2,0.9-5.8,1-8.8,1.1c-0.6,0.1-2.6,0.1-6.1,0C148.1,251.1,145.1,250.9,142.1,250.6z;"/>
<animate
    xlink:href="#leaves1"
    attributeType="CSS"
    attributeName="opacity"
    from="0"
    to="0"
    dur="3s"
    repeatCount="0" />
<animate
    xlink:href="#leaves1"
    attributeType="CSS"
    attributeName="opacity"
    begin="3s"
    from="0"
    to="1"
    dur="2s"
    repeatCount="0" />
<animate
    xlink:href="#leaves2"
    attributeType="CSS"
    attributeName="opacity"
    from="0"
    to="0"
    dur="3s"
    repeatCount="0" />
<animate
    xlink:href="#leaves2"
    attributeType="CSS"
    attributeName="opacity"
    begin="3s"
    from="0"
    to="1"
    dur="2s"
    repeatCount="0" />
<animate
    xlink:href="#leaves3"
    attributeType="CSS"
    attributeName="opacity"
    from="0"
    to="0"
    dur="3s"
    repeatCount="0" />
<animate
    xlink:href="#leaves3"
    attributeType="CSS"
    attributeName="opacity"
    begin="3s"
    from="0"
    to="1"
    dur="2s"
    repeatCount="0" />
</svg>
