<?xml version="1.0" encoding="utf-8"?>
<!-- Generator: Adobe Illustrator 18.1.1, SVG Export Plug-In . SVG Version: 6.00 Build 0)  -->
<svg version="1.1" id="Layer_1" xmlns="http://www.w3.org/2000/svg" xmlns:xlink="http://www.w3.org/1999/xlink" x="0px" y="0px"
     viewBox="0 0 300 300" style="enable-background:new 0 0 300 300;" xml:space="preserve">
<style type="text/css">
    .st0{fill:#8C6239;}
    .st1{fill:#22B573;}
</style>
<path id="tree" class="st0" d="M142.1,250.6c-9.6-0.9-12.7-0.9-18.7-2.3c-3.7-0.9,10-43.2,10.4-45.5c1.1-7-7.6-7.9-14.8-10.6
    c-4.8-1.9-14.5-6-21.1-16.8c-6.5-14.6-19-45.7-19.2-46.8c-2.7-17.6,26-2,29,2.8c7.7,12.5,6.9,36,9.2,38.2c5.2,5.1,24,6.3,22.4-1.3
    c-2.2-10.3-9.7-58-0.5-59.9c9.8-1.9,15.7,30.4,15.6,38.2c-0.4,20.6,5.4,25.6,7.4,25.4c33.1-4.4,16.8-56.3,34-58.6
    c19.5-2.6,0.9,51.6-2,56.4c-4.7,7.6-25.9,16.1-23.1,29.5c1.4,6.9,1,49.8-3.3,50.9c-3.2,0.9-5.8,1-8.8,1.1c-0.6,0.1-2.6,0.1-6.1,0
    C148.1,251.1,145.1,250.9,142.1,250.6z"/>
<ellipse id="leaves3" fill="#22B573" cx="105.7" cy="111" rx="47.6" ry="31.6"/>
<ellipse id="leaves2" fill="#22B573" cx="196.4" cy="117.7" rx="37.7" ry="24.3"/>
<ellipse id="leaves1" fill="#22B573" cx="147.3" cy="107.5" rx="45.8" ry="33.5"/>
<animate
    xlink:href="#tree"
    attributeType="CSS"
    attributeName="opacity"
    from="0"
    to="0"
    dur="0.5s"
    repeatCount="0" />
<animate
    xlink:href="#tree"
    attributeType="CSS"
    attributeName="opacity"
    begin="0.5s"
    from="0"
    to="1"
    dur="1s"
    repeatCount="0" />
<animate
    xlink:href="#tree"
    attributeName="d" 
    dur="3000ms" 
    repeatCount="0"
    values="M142.1,250.6c-9.6-0.9-12.7-0.9-18.7-2.3c-3.7-0.9,2.3-1.2,2.6-3.4c-0.8,0.3,3,2.5,2.5,1.8
    c0.4,0.6,6.4,0.7,2.8-0.4c0,0,2.3,1.1,2.1,0c-0.1-0.9-1.6-5.6,1.4-0.7c1.2,0.8,0.9-0.4,3.2,1.8c0.5,0.7,1.9,1,1.4,0.2
    c-0.7,0.8,4.7,0.9,4.7,0.9c-3,1.3-1.8-1-1.4,0c-0.4,0.3,2.7,0.3,4.6,0c3.5,0.6,2,0.5,2.8,0.7c4.6-1.4,4.2-1.4,4.2-0.4
    c-0.9,0.3,6.4-2.8,7.4-3.2c0,0,9.8,3.5,5.5,4.6c-3.2,0.9-5.8,1-8.8,1.1c-0.6,0.1-2.6,0.1-6.1,0C148.1,251.1,145.1,250.9,142.1,250.6
    z;

    M142.1,250.6c-9.6-0.9-12.7-0.9-18.7-2.3c-3.7-0.9,10-43.2,10.4-45.5c1.1-7-7.6-7.9-14.8-10.6
    c-4.8-1.9-14.5-6-21.1-16.8c-6.5-14.6-19-45.7-19.2-46.8c-2.7-17.6,26-2,29,2.8c7.7,12.5,6.9,36,9.2,38.2c5.2,5.1,24,6.3,22.4-1.3
    c-2.2-10.3-9.7-58-0.5-59.9c9.8-1.9,15.7,30.4,15.6,38.2c-0.4,20.6,5.4,25.6,7.4,25.4c33.1-4.4,16.8-56.3,34-58.6
    c19.5-2.6,0.9,51.6-2,56.4c-4.7,7.6-25.9,16.1-23.1,29.5c1.4,6.9,1,49.8-3.3,50.9c-3.2,0.9-5.8,1-8.8,1.1c-0.6,0.1-2.6,0.1-6.1,0
    C148.1,251.1,145.1,250.9,142.1,250.6z;"/>
<animate
    xlink:href="#leaves1"
    attributeType="CSS"
    attributeName="opacity"
    from="0"
    to="0"
    dur="3s"
    repeatCount="0" />
<animate
    xlink:href="#leaves1"
    attributeType="CSS"
    attributeName="opacity"
    begin="3s"
    from="0"
    to="1"
    dur="2s"
    repeatCount="0" />
<animate
    xlink:href="#leaves2"
    attributeType="CSS"
    attributeName="opacity"
    from="0"
    to="0"
    dur="3s"
    repeatCount="0" />
<animate
    xlink:href="#leaves2"
    attributeType="CSS"
    attributeName="opacity"
    begin="3s"
    from="0"
    to="1"
    dur="2s"
    repeatCount="0" />
<animate
    xlink:href="#leaves3"
    attributeType="CSS"
    attributeName="opacity"
    from="0"
    to="0"
    dur="3s"
    repeatCount="0" />
<animate
    xlink:href="#leaves3"
    attributeType="CSS"
    attributeName="opacity"
    begin="3s"
    from="0"
    to="1"
    dur="2s"
    repeatCount="0" />
</svg>
