<?xml version="1.0" encoding="utf-8"?>
<!-- Generator: Adobe Illustrator 18.1.1, SVG Export Plug-In . SVG Version: 6.00 Build 0)  -->
<svg version="1.1" id="Layer_1" xmlns="http://www.w3.org/2000/svg" xmlns:xlink="http://www.w3.org/1999/xlink" x="0px" y="0px"
	 viewBox="0 0 300 300" enable-background="new 0 0 300 300" xml:space="preserve">
<path id="tree" fill="#8C6239" d="M142.1,250.6c-9.6-0.9-12.7-0.9-18.7-2.3c-3.7-0.9,5-28.3,5.3-30.6c1.1-7-1.9-23.8-9.1-26.6
	c-4.8-1.9-19-15.5-25.6-26.3c-6.5-14.6-15.2-35.2-15.4-36.3c-2.7-17.6,19.9-1.1,22.9,3.8c7.7,12.5,17.6,29.5,19.8,31.7
	c5.2,5.1,19.5,11.9,17.9,4.3c-2.2-10.3,4.7-38.6,13.8-40.5c9.8-1.9,8.1,18.4,8,26.2c-0.4,20.6-1.3,18.2,0.6,17.9
	c33.1-4.4,22.1-36.6,29.9-44.9c19.5-2.6,13.3,45.4,10.3,50.2c-4.7,7.6-37.9,19.8-35,33.2c1.4,6.9,4.6,38.7,0.4,39.8
	c-3.2,0.9-5.8,1-8.8,1.1c-0.6,0.1-2.6,0.1-6.1,0C148.1,251.1,145.1,250.9,142.1,250.6z"/>
<ellipse id="leaves3" fill="#22B573" cx="92.7" cy="119.2" rx="34.6" ry="23.4"/>
<ellipse id="leaves2" fill="#22B573" cx="192.1" cy="123.2" rx="29.9" ry="21.8"/>
<ellipse id="leaves1" fill="#22B573" cx="149.8" cy="114.8" rx="50.6" ry="35.9"/>
</svg>
