<?xml version="1.0" encoding="utf-8"?>
<!-- Generator: Adobe Illustrator 18.1.1, SVG Export Plug-In . SVG Version: 6.00 Build 0)  -->
<svg version="1.1" id="Layer_1" xmlns="http://www.w3.org/2000/svg" xmlns:xlink="http://www.w3.org/1999/xlink" x="0px" y="0px"
	 viewBox="0 0 400 600" style="enable-background:new 0 0 400 600;" xml:space="preserve">
<style type="text/css">
	.st0{fill:#8C6239;}
	.st1{fill:#22B573;}
</style>
<path id="tree" class="st0" d="M184.1,501.1c-19.2-1.9-25.4-1.7-37.4-4.6c-7.3-1.8,6-89.2,6.7-93.7c2.2-14-23.8-17.3-38.2-22.8
	c-9.6-3.7-19.1-8.1-19.6-29.3C94.9,320.6,75.3,249,74.9,246.9c-5.4-35.2,15.8-22.9,21.8-13.2c15.4,25,32.3,113.2,36.8,117.6
	c10.3,10.3,48.1,0.5,44.9-14.7c-4.4-20.6-0.7-119.1,17.6-122.8c19.5-3.9,12.8,63.9,12.5,79.4c-0.7,41.2,10.9,51.2,14.7,50.7
	c66.2-8.8,56.1-96.9,90.4-101.5c39-5.1-20.6,87.5-26.5,97.1c-9.4,15.3-71.1,46-65.4,72.8c2.9,13.8,21.2,85.7,12.7,87.9
	c-6.4,1.7-11.6,2-17.6,2.3c-1.3,0.1-5.2,0.2-12.2,0C196.1,502.3,190.2,501.7,184.1,501.1z"/>
<ellipse id="leaves3" class="st1" cx="110.7" cy="258.8" rx="95.2" ry="63.2"/>
<ellipse id="leaves2" class="st1" cx="281.5" cy="255.1" rx="75.4" ry="48.5"/>
<ellipse id="leaves1" class="st1" cx="190" cy="229.4" rx="109.6" ry="78.7"/>
</svg>
